<svg id="Layer_1" data-name="Layer 1" xmlns="http://www.w3.org/2000/svg" xmlns:xlink="http://www.w3.org/1999/xlink" viewBox="0 0 1784 760"><defs><style>.cls-1{fill:#59090a;}.cls-2{fill:#eee0b8;}.cls-3{fill:#232323;}.cls-4{fill:url(#Áåçûìÿííûé_ãðàäèåíò_2);}.cls-5{fill:url(#Áåçûìÿííûé_ãðàäèåíò_2-2);}.cls-6{fill:url(#Áåçûìÿííûé_ãðàäèåíò_2-3);}.cls-7{fill:url(#Áåçûìÿííûé_ãðàäèåíò_2-4);}.cls-8{fill:url(#Áåçûìÿííûé_ãðàäèåíò_2-5);}.cls-9{fill:url(#Áåçûìÿííûé_ãðàäèåíò_2-6);}.cls-10{fill:url(#Áåçûìÿííûé_ãðàäèåíò_2-7);}.cls-11{fill:url(#Áåçûìÿííûé_ãðàäèåíò_2-8);}.cls-12{fill:url(#Áåçûìÿííûé_ãðàäèåíò_2-9);}.cls-13{fill:url(#Áåçûìÿííûé_ãðàäèåíò_2-10);}.cls-14{fill:url(#Áåçûìÿííûé_ãðàäèåíò_2-11);}.cls-15{fill:url(#Áåçûìÿííûé_ãðàäèåíò_2-12);}.cls-16{fill:url(#Áåçûìÿííûé_ãðàäèåíò_2-13);}.cls-17{fill:url(#Áåçûìÿííûé_ãðàäèåíò_2-14);}.cls-18{fill:url(#Áåçûìÿííûé_ãðàäèåíò_2-15);}.cls-19{fill:url(#Áåçûìÿííûé_ãðàäèåíò_2-16);}.cls-20{fill:url(#Áåçûìÿííûé_ãðàäèåíò_2-17);}.cls-21{fill:url(#Áåçûìÿííûé_ãðàäèåíò_2-18);}.cls-22{fill:url(#Áåçûìÿííûé_ãðàäèåíò_2-19);}.cls-23{fill:url(#Áåçûìÿííûé_ãðàäèåíò_2-20);}.cls-24{fill:url(#Áåçûìÿííûé_ãðàäèåíò_2-21);}.cls-25{fill:url(#Áåçûìÿííûé_ãðàäèåíò_2-22);}.cls-26{fill:url(#Áåçûìÿííûé_ãðàäèåíò_2-23);}.cls-27{fill:url(#Áåçûìÿííûé_ãðàäèåíò_2-24);}.cls-28{fill:url(#Áåçûìÿííûé_ãðàäèåíò_2-25);}.cls-29{fill:url(#Áåçûìÿííûé_ãðàäèåíò_2-26);}.cls-30{fill:url(#Áåçûìÿííûé_ãðàäèåíò_2-27);}.cls-31{fill:url(#Áåçûìÿííûé_ãðàäèåíò_2-28);}.cls-32{fill:url(#Áåçûìÿííûé_ãðàäèåíò_2-29);}.cls-33{fill:url(#Áåçûìÿííûé_ãðàäèåíò_2-30);}.cls-34{fill:url(#Áåçûìÿííûé_ãðàäèåíò_2-31);}.cls-35{fill:url(#Áåçûìÿííûé_ãðàäèåíò_2-32);}.cls-36{fill:url(#Áåçûìÿííûé_ãðàäèåíò_2-33);}.cls-37{fill:url(#Áåçûìÿííûé_ãðàäèåíò_2-34);}.cls-38{fill:url(#Áåçûìÿííûé_ãðàäèåíò_2-35);}.cls-39{fill:url(#Áåçûìÿííûé_ãðàäèåíò_2-36);}.cls-40{fill:url(#Áåçûìÿííûé_ãðàäèåíò_2-37);}.cls-41{fill:url(#Áåçûìÿííûé_ãðàäèåíò_2-38);}.cls-42{fill:url(#Áåçûìÿííûé_ãðàäèåíò_2-39);}.cls-43{fill:url(#Áåçûìÿííûé_ãðàäèåíò_2-40);}.cls-44{fill:url(#Áåçûìÿííûé_ãðàäèåíò_2-41);}.cls-45{fill:url(#Áåçûìÿííûé_ãðàäèåíò_2-42);}.cls-46{fill:url(#Áåçûìÿííûé_ãðàäèåíò_2-43);}.cls-47{fill:url(#Áåçûìÿííûé_ãðàäèåíò_2-44);}.cls-48{fill:url(#Áåçûìÿííûé_ãðàäèåíò_2-45);}.cls-49{fill:url(#Áåçûìÿííûé_ãðàäèåíò_2-46);}.cls-50{fill:url(#Áåçûìÿííûé_ãðàäèåíò_2-47);}.cls-51{fill:url(#Áåçûìÿííûé_ãðàäèåíò_2-48);}.cls-52{fill:url(#Áåçûìÿííûé_ãðàäèåíò_2-49);}.cls-53{fill:url(#Áåçûìÿííûé_ãðàäèåíò_2-50);}.cls-54{fill:url(#Áåçûìÿííûé_ãðàäèåíò_2-51);}.cls-55{fill:url(#Áåçûìÿííûé_ãðàäèåíò_2-52);}</style><radialGradient id="Áåçûìÿííûé_ãðàäèåíò_2" cx="1201.21" cy="229.63" r="12.03" gradientUnits="userSpaceOnUse"><stop offset="0" stop-color="#3b393b"/><stop offset="1" stop-color="#282829"/></radialGradient><radialGradient id="Áåçûìÿííûé_ãðàäèåíò_2-2" cx="1344.99" cy="229.48" r="12.03" xlink:href="#Áåçûìÿííûé_ãðàäèåíò_2"/><radialGradient id="Áåçûìÿííûé_ãðàäèåíò_2-3" cx="1201.21" cy="-593.74" r="35.79" gradientTransform="translate(0 517.3) scale(1 0.62)" xlink:href="#Áåçûìÿííûé_ãðàäèåíò_2"/><radialGradient id="Áåçûìÿííûé_ãðàäèåíò_2-4" cx="1201.21" cy="-259.14" r="33.1" gradientTransform="translate(0 477.49) scale(1 0.65)" xlink:href="#Áåçûìÿííûé_ãðàäèåíò_2"/><radialGradient id="Áåçûìÿííûé_ãðàäèåíò_2-5" cx="1345.03" cy="-608.22" r="35.79" gradientTransform="translate(0 517.3) scale(1 0.62)" xlink:href="#Áåçûìÿííûé_ãðàäèåíò_2"/><radialGradient id="Áåçûìÿííûé_ãðàäèåíò_2-6" cx="1345.03" cy="-272.95" r="33.1" gradientTransform="translate(0 477.49) scale(1 0.65)" xlink:href="#Áåçûìÿííûé_ãðàäèåíò_2"/><radialGradient id="Áåçûìÿííûé_ãðàäèåíò_2-7" cx="1270.54" cy="768.63" r="83.34" gradientTransform="translate(0 -1279.58) scale(1 1.95)" xlink:href="#Áåçûìÿííûé_ãðàäèåíò_2"/><radialGradient id="Áåçûìÿííûé_ãðàäèåíò_2-8" cx="88.84" cy="293.29" r="18.94" xlink:href="#Áåçûìÿííûé_ãðàäèåíò_2"/><radialGradient id="Áåçûìÿííûé_ãðàäèåíò_2-9" cx="141.83" cy="453.04" r="94.75" xlink:href="#Áåçûìÿííûé_ãðàäèåíò_2"/><radialGradient id="Áåçûìÿííûé_ãðàäèåíò_2-10" cx="141.82" cy="171.25" r="74.31" xlink:href="#Áåçûìÿííûé_ãðàäèåíò_2"/><radialGradient id="Áåçûìÿííûé_ãðàäèåíò_2-11" cx="278.48" cy="153.37" r="44.16" xlink:href="#Áåçûìÿííûé_ãðàäèåíò_2"/><radialGradient id="Áåçûìÿííûé_ãðàäèåíò_2-12" cx="278.48" cy="497.78" r="44.83" xlink:href="#Áåçûìÿííûé_ãðàäèåíò_2"/><radialGradient id="Áåçûìÿííûé_ãðàäèåíò_2-13" cx="432.9" cy="229.12" r="12.03" xlink:href="#Áåçûìÿííûé_ãðàäèåíò_2"/><radialGradient id="Áåçûìÿííûé_ãðàäèåíò_2-14" cx="566.84" cy="229.12" r="12.03" xlink:href="#Áåçûìÿííûé_ãðàäèåíò_2"/><radialGradient id="Áåçûìÿííûé_ãðàäèåíò_2-15" cx="463.82" cy="130.67" r="48.74" xlink:href="#Áåçûìÿííûé_ãðàäèåíò_2"/><radialGradient id="Áåçûìÿííûé_ãðàäèåíò_2-16" cx="536.16" cy="321.69" r="48.76" xlink:href="#Áåçûìÿííûé_ãðàäèåíò_2"/><radialGradient id="Áåçûìÿííûé_ãðàäèåíò_2-17" cx="1081.7" cy="229.66" r="12.03" xlink:href="#Áåçûìÿííûé_ãðàäèåíò_2"/><radialGradient id="Áåçûìÿííûé_ãðàäèåíò_2-18" cx="1081.7" cy="-611.93" r="35.8" gradientTransform="translate(0 517.3) scale(1 0.62)" xlink:href="#Áåçûìÿííûé_ãðàäèåíò_2"/><radialGradient id="Áåçûìÿííûé_ãðàäèåíò_2-19" cx="1081.7" cy="-254.07" r="37.51" gradientTransform="translate(0 477.49) scale(1 0.65)" xlink:href="#Áåçûìÿííûé_ãðàäèåíò_2"/><radialGradient id="Áåçûìÿííûé_ãðàäèåíò_2-20" cx="1470.56" cy="290.59" r="18.94" xlink:href="#Áåçûìÿííûé_ãðàäèåíò_2"/><radialGradient id="Áåçûìÿííûé_ãðàäèåíò_2-21" cx="1522.3" cy="471.9" r="82.3" xlink:href="#Áåçûìÿííûé_ãðàäèåíò_2"/><radialGradient id="Áåçûìÿííûé_ãðàäèåíò_2-22" cx="1470.56" cy="-1852.61" r="32.6" gradientTransform="translate(0 867.91) scale(1 0.36)" xlink:href="#Áåçûìÿííûé_ãðàäèåíò_2"/><radialGradient id="Áåçûìÿííûé_ãðàäèåíò_2-23" cx="1681.53" cy="-216.51" r="55.29" gradientTransform="translate(0 533.42) scale(1 0.6)" xlink:href="#Áåçûìÿííûé_ãðàäèåíò_2"/><radialGradient id="Áåçûìÿííûé_ãðàäèåíò_2-24" cx="1609.19" cy="-56.51" r="67.05" gradientTransform="translate(0 187.46) scale(1 0.86)" xlink:href="#Áåçûìÿííûé_ãðàäèåíò_2"/><radialGradient id="Áåçûìÿííûé_ãðàäèåíò_2-25" cx="675.12" cy="229.61" r="12.03" xlink:href="#Áåçûìÿííûé_ãðàäèåíò_2"/><radialGradient id="Áåçûìÿííûé_ãðàäèåíò_2-26" cx="960.91" cy="229.61" r="12.03" xlink:href="#Áåçûìÿííûé_ãðàäèåíò_2"/><radialGradient id="Áåçûìÿííûé_ãðàäèåíò_2-27" cx="675.81" cy="-598.63" r="35.8" gradientTransform="translate(0 517.3) scale(1 0.62)" xlink:href="#Áåçûìÿííûé_ãðàäèåíò_2"/><radialGradient id="Áåçûìÿííûé_ãðàäèåíò_2-28" cx="675.81" cy="-263.81" r="33.1" gradientTransform="translate(0 477.49) scale(1 0.65)" xlink:href="#Áåçûìÿííûé_ãðàäèåíò_2"/><radialGradient id="Áåçûìÿííûé_ãðàäèåíò_2-29" cx="960.91" cy="-598.63" r="35.8" gradientTransform="translate(0 517.3) scale(1 0.62)" xlink:href="#Áåçûìÿííûé_ãðàäèåíò_2"/><radialGradient id="Áåçûìÿííûé_ãðàäèåíò_2-30" cx="960.91" cy="-263.81" r="33.1" gradientTransform="translate(0 477.49) scale(1 0.65)" xlink:href="#Áåçûìÿííûé_ãðàäèåíò_2"/><radialGradient id="Áåçûìÿííûé_ãðàäèåíò_2-31" cx="818.05" cy="549.87" r="70.09" gradientTransform="translate(0 -498.63) scale(1 1.37)" xlink:href="#Áåçûìÿííûé_ãðàäèåíò_2"/><radialGradient id="Áåçûìÿííûé_ãðàäèåíò_2-32" cx="751.05" cy="83.01" r="40.86" xlink:href="#Áåçûìÿííûé_ãðàäèåíò_2"/><radialGradient id="Áåçûìÿííûé_ãðàäèåíò_2-33" cx="885.09" cy="83.01" r="40.86" xlink:href="#Áåçûìÿííûé_ãðàäèåíò_2"/><radialGradient id="Áåçûìÿííûé_ãðàäèåíò_2-34" cx="1113.93" cy="575.2" r="8.07" xlink:href="#Áåçûìÿííûé_ãðàäèåíò_2"/><radialGradient id="Áåçûìÿííûé_ãðàäèåíò_2-35" cx="1210.38" cy="575.21" r="8.07" xlink:href="#Áåçûìÿííûé_ãðàäèåíò_2"/><radialGradient id="Áåçûìÿííûé_ãðàäèåíò_2-36" cx="1113.93" cy="18.56" r="24.01" gradientTransform="translate(0 517.3) scale(1 0.62)" xlink:href="#Áåçûìÿííûé_ãðàäèåíò_2"/><radialGradient id="Áåçûìÿííûé_ãðàäèåíò_2-37" cx="1113.93" cy="244.24" r="22.2" gradientTransform="translate(0 477.49) scale(1 0.65)" xlink:href="#Áåçûìÿííûé_ãðàäèåíò_2"/><radialGradient id="Áåçûìÿííûé_ãðàäèåíò_2-38" cx="1210.4" cy="8.85" r="24.01" gradientTransform="translate(0 517.3) scale(1 0.62)" xlink:href="#Áåçûìÿííûé_ãðàäèåíò_2"/><radialGradient id="Áåçûìÿííûé_ãðàäèåíò_2-39" cx="1210.4" cy="234.98" r="22.2" gradientTransform="translate(0 477.49) scale(1 0.65)" xlink:href="#Áåçûìÿííûé_ãðàäèåíò_2"/><radialGradient id="Áåçûìÿííûé_ãðàäèåíò_2-40" cx="1160.44" cy="950.82" r="55.9" gradientTransform="translate(0 -1279.58) scale(1 1.95)" xlink:href="#Áåçûìÿííûé_ãðàäèåíò_2"/><radialGradient id="Áåçûìÿííûé_ãðàäèåíò_2-41" cx="485.47" cy="575.22" r="24.91" xlink:href="#Áåçûìÿííûé_ãðàäèåíò_2"/><radialGradient id="Áåçûìÿííûé_ãðàäèåíò_2-42" cx="1304.19" cy="575.72" r="24.91" xlink:href="#Áåçûìÿííûé_ãðàäèåíò_2"/><radialGradient id="Áåçûìÿííûé_ãðàäèåíò_2-43" cx="933.39" cy="575.07" r="8.07" xlink:href="#Áåçûìÿííûé_ãðàäèåíò_2"/><radialGradient id="Áåçûìÿííûé_ãðàäèåíò_2-44" cx="1023.23" cy="575.07" r="8.07" xlink:href="#Áåçûìÿííûé_ãðàäèåíò_2"/><radialGradient id="Áåçûìÿííûé_ãðàäèåíò_2-45" cx="954.13" cy="515.57" r="32.7" xlink:href="#Áåçûìÿííûé_ãðàäèåíò_2"/><radialGradient id="Áåçûìÿííûé_ãðàäèåíò_2-46" cx="1002.65" cy="643.71" r="32.71" xlink:href="#Áåçûìÿííûé_ãðàäèåíò_2"/><radialGradient id="Áåçûìÿííûé_ãðàäèåíò_2-47" cx="754.22" cy="575.2" r="8.07" xlink:href="#Áåçûìÿííûé_ãðàäèåíò_2"/><radialGradient id="Áåçûìÿííûé_ãðàäèåíò_2-48" cx="844.07" cy="575.2" r="8.07" xlink:href="#Áåçûìÿííûé_ãðàäèåíò_2"/><radialGradient id="Áåçûìÿííûé_ãðàäèåíò_2-49" cx="774.96" cy="515.57" r="32.7" xlink:href="#Áåçûìÿííûé_ãðàäèåíò_2"/><radialGradient id="Áåçûìÿííûé_ãðàäèåíò_2-50" cx="823.49" cy="643.71" r="32.71" xlink:href="#Áåçûìÿííûé_ãðàäèåíò_2"/><radialGradient id="Áåçûìÿííûé_ãðàäèåíò_2-51" cx="618.14" cy="638.56" r="49.63" xlink:href="#Áåçûìÿííûé_ãðàäèåíò_2"/><radialGradient id="Áåçûìÿííûé_ãðàäèåíò_2-52" cx="616.35" cy="515.15" r="46.14" xlink:href="#Áåçûìÿííûé_ãðàäèåíò_2"/></defs><title>coming-soonArtboard 1svg</title><path class="cls-1" d="M1393.64,234l.17.16-.64.41a81.9,81.9,0,0,0-21.36,19.48V374.84a19.73,19.73,0,0,0,6.45,11.32,40.92,40.92,0,0,0,6.07,4.21,21.6,21.6,0,0,1-5.5-10.79V258.26l.12-.16A83,83,0,0,1,1400,238.62C1397.83,237.19,1395.7,235.66,1393.64,234Z"/><path class="cls-1" d="M1229.94,175.64v200.6a19.57,19.57,0,0,0,6.32,10.27,40.3,40.3,0,0,0,6,4.17A21.24,21.24,0,0,1,1237,381l0-.15V190.66Z"/><path class="cls-1" d="M1350.07,64.08a17.17,17.17,0,0,1,.94-1.58,19.82,19.82,0,0,0-3-1.58A17.5,17.5,0,0,1,1350.07,64.08Z"/><path class="cls-1" d="M1384.54,60.89a16.85,16.85,0,0,1,3.81,9.06l0,.47-.45.14c-2,.62-5.29,2.14-9.8,5.85a19.46,19.46,0,0,0-6.34,11.07V214a81.76,81.76,0,0,0,20.33,18.8,82.12,82.12,0,0,1-13.2-13.68l-.12-.16V91.93a20.61,20.61,0,0,1,6.75-11.85,32.86,32.86,0,0,1,9.73-5.91C1394.53,68.19,1390.34,63.28,1384.54,60.89Z"/><path class="cls-1" d="M1228.09,69.74a34.25,34.25,0,0,0-8.64-6.67c.44.43.89.86,1.32,1.32a88.23,88.23,0,0,1,9.09,12l98.48,211.79V278L1237,81.55A87.15,87.15,0,0,0,1228.09,69.74Z"/><path class="cls-1" d="M1253.44,397.89a28.68,28.68,0,0,1-7.1-3.88c-1.43,8.81-9.78,15.33-19.87,15.33a22.05,22.05,0,0,1-3.65-.31,20.46,20.46,0,0,0,11.83,3.71C1244.35,412.73,1252.34,406.38,1253.44,397.89Z"/><path class="cls-1" d="M1376,412.45c9-.93,18.42-5.87,19.6-14.83a28.92,28.92,0,0,1-7.11-3.87c-1.56,9.24-11.3,14.33-20.55,15.3a41.2,41.2,0,0,1-13.92-.72C1360.2,412,1367.37,413.34,1376,412.45Z"/><path class="cls-1" d="M1213.83,405.29a18.4,18.4,0,0,1-5.62-6.44c-3.25,6.32-10.42,10.48-18.26,10.48a22.91,22.91,0,0,1-3.74-.31,20.45,20.45,0,0,0,11.92,3.71A19.77,19.77,0,0,0,1213.83,405.29Z"/><path class="cls-2" d="M1365.48,370.44v-121a82.75,82.75,0,0,1,21.63-19.78l-.39-.36a82.7,82.7,0,0,1-21.24-19.52V82.91a19.93,19.93,0,0,1,6.54-11.4c4.71-3.87,8.14-5.37,10-6-.88-8.87-9.24-15.83-19.43-15.83-8.37,0-15.48,4.69-18.26,11.28-2.78-6.58-9.89-11.28-18.26-11.28-10.19,0-18.55,7-19.43,15.83,1.85.58,5.28,2.08,10,6a20.18,20.18,0,0,1,6.54,10.65V286.4L1223.61,72.28a87.07,87.07,0,0,0-9-12c-9.3-9.75-19.66-11.38-29.91-10.32s-19.28,6.82-20.17,15.81c1.88.59,5.36,2.11,10.14,6a20.27,20.27,0,0,1,6.66,11.71V210.08a82.76,82.76,0,0,1-21.63,19.78l.39.36a82.7,82.7,0,0,1,21.24,19.52V371.11a19.93,19.93,0,0,1-6.54,11.4c-4.71,3.87-8.14,5.37-10,6,.88,8.87,9.24,15.83,19.43,15.83,8.37,0,15.48-4.69,18.26-11.28,2.78,6.58,9.89,11.28,18.26,11.28,10.19,0,18.55-7,19.43-15.83-1.85-.58-5.28-2.08-10-6a20.18,20.18,0,0,1-6.54-10.65V168.56l99.56,213.14v0a87.08,87.08,0,0,0,9,12c9.3,9.75,19.66,11.38,29.91,10.32s19.28-6.82,20.17-15.81c-1.88-.59-5.36-2.11-10.14-6A20.27,20.27,0,0,1,1365.48,370.44Z"/><path class="cls-3" d="M1220.72,404.87c-7.84,0-15-4.16-18.26-10.48-3.25,6.32-10.42,10.48-18.26,10.48-10.48,0-19.09-7-20-16.35l0-.47.45-.14c2-.62,5.29-2.14,9.8-5.85a19.45,19.45,0,0,0,6.34-11.07v-121a81.82,81.82,0,0,0-21-19.23l-1-.94.64-.4a81.92,81.92,0,0,0,21.36-19.48V83.57a19.79,19.79,0,0,0-6.45-11.26c-4.58-3.76-7.94-5.3-9.94-5.93l-.45-.14,0-.47c1-9.9,11.1-15.34,20.7-16.34,12.65-1.31,22.3,2,30.39,10.5a88.26,88.26,0,0,1,9.09,12l98.48,211.79V82.23A19.56,19.56,0,0,0,1316.27,72c-4.52-3.71-7.82-5.23-9.8-5.85L1306,66l0-.47c.93-9.32,9.53-16.35,20-16.35,7.84,0,15,4.16,18.26,10.48,3.25-6.32,10.42-10.48,18.26-10.48,10.48,0,19.09,7,20,16.35l0,.47-.45.14c-2,.62-5.29,2.14-9.8,5.85A19.46,19.46,0,0,0,1366.05,83V209.58a81.84,81.84,0,0,0,21,19.23l1,.94-.64.4a81.9,81.9,0,0,0-21.36,19.48V370.38a19.73,19.73,0,0,0,6.45,11.32c4.58,3.76,7.94,5.3,9.95,5.93l.45.14,0,.47c-1,9.9-11.1,15.34-20.69,16.34-12.66,1.31-22.31-2-30.4-10.5a88.39,88.39,0,0,1-9.09-12l-.09-.21-98.4-210.65v200.6a19.57,19.57,0,0,0,6.32,10.27c4.52,3.71,7.82,5.23,9.8,5.85l.45.14,0,.47C1239.81,397.84,1231.2,404.87,1220.72,404.87Zm-18.26-13.36.54,1.27c2.75,6.53,9.88,10.92,17.72,10.92,9.71,0,17.7-6.35,18.8-14.84a32.85,32.85,0,0,1-9.73-5.9,20.75,20.75,0,0,1-6.73-11l0-.15V165.93l1.11,2.38,99.61,213.24a87.06,87.06,0,0,0,8.88,11.75c7.8,8.18,17.16,11.4,29.42,10.13,9-.93,18.42-5.87,19.6-14.83a33.33,33.33,0,0,1-9.88-6,20.93,20.93,0,0,1-6.86-12V249.24l.12-.16a83,83,0,0,1,21.11-19.49A82.61,82.61,0,0,1,1365,210.13l-.12-.16V82.91a20.61,20.61,0,0,1,6.75-11.85,32.86,32.86,0,0,1,9.73-5.91c-1.1-8.49-9.09-14.84-18.8-14.84-7.84,0-15,4.39-17.72,10.92l-.54,1.27-.54-1.27c-2.75-6.53-9.88-10.92-17.72-10.92-9.71,0-17.7,6.35-18.8,14.84a32.8,32.8,0,0,1,9.73,5.91,20.77,20.77,0,0,1,6.73,11l0,.15V289L1223.09,72.52a87.15,87.15,0,0,0-8.92-11.81c-7.81-8.18-17.18-11.4-29.42-10.13-9,.93-18.42,5.87-19.6,14.83a33.31,33.31,0,0,1,9.87,6,20.92,20.92,0,0,1,6.86,12V210.28l-.12.16a83,83,0,0,1-21.11,19.48,82.59,82.59,0,0,1,21.11,19.47l.12.16V371.1a20.61,20.61,0,0,1-6.75,11.85,32.8,32.8,0,0,1-9.73,5.9c1.1,8.49,9.09,14.84,18.8,14.84,7.84,0,15-4.39,17.72-10.92Z"/><path class="cls-4" d="M1201.24,220a27.79,27.79,0,0,0,4.13,5.15,32.47,32.47,0,0,0,5.61,4.46,35.17,35.17,0,0,0-5.5,4.55,26.07,26.07,0,0,0-4.13,5.06,33.24,33.24,0,0,0-4.32-5.12,30.55,30.55,0,0,0-5.61-4.49,40.34,40.34,0,0,0,5.1-4.33A45.62,45.62,0,0,0,1201.24,220Z"/><path class="cls-5" d="M1345,219.87a27.79,27.79,0,0,0,4.13,5.15,32.47,32.47,0,0,0,5.61,4.46,35.17,35.17,0,0,0-5.5,4.55,26.08,26.08,0,0,0-4.13,5.06,33.24,33.24,0,0,0-4.32-5.12,30.55,30.55,0,0,0-5.61-4.49,40.34,40.34,0,0,0,5.1-4.33A45.62,45.62,0,0,0,1345,219.87Z"/><path class="cls-6" d="M1201.21,100.82s.34,6.33.59,15.82c.06,2.37.13,4.94.18,7.66l.14,8.55c0,3,.08,6,.09,9.14l0,9.44c0,3.16,0,6.33,0,9.44s-.06,6.18-.09,9.14c-.07,5.93-.18,11.47-.32,16.21-.24,9.49-.59,15.82-.59,15.82s-.35-6.33-.59-15.82c-.13-4.74-.24-10.28-.32-16.21,0-3-.09-6-.09-9.14s0-6.28,0-9.44,0-6.33,0-9.44.06-6.18.09-9.14l.14-8.55c0-2.72.11-5.29.18-7.66C1200.87,107.15,1201.21,100.82,1201.21,100.82Z"/><path class="cls-7" d="M1201.21,263.35s.34,5.85.59,14.63c.06,2.19.13,4.57.18,7.08s.11,5.16.14,7.91.08,5.58.09,8.46,0,5.8,0,8.73,0,5.85,0,8.73-.06,5.71-.09,8.46c-.07,5.48-.18,10.6-.32,15-.24,8.78-.59,14.63-.59,14.63s-.35-5.85-.59-14.63c-.13-4.39-.24-9.51-.32-15,0-2.74-.09-5.58-.09-8.46s0-5.8,0-8.73,0-5.85,0-8.73.06-5.71.09-8.46.09-5.39.14-7.91.11-4.89.18-7.08C1200.87,269.2,1201.21,263.35,1201.21,263.35Z"/><path class="cls-8" d="M1345,91.9s.34,6.33.59,15.82c.06,2.37.13,4.94.18,7.66l.14,8.55c0,3,.08,6,.09,9.14s0,6.28,0,9.44,0,6.33,0,9.44-.06,6.18-.09,9.14c-.07,5.93-.18,11.47-.32,16.21-.24,9.49-.59,15.82-.59,15.82s-.35-6.33-.59-15.82c-.13-4.74-.24-10.28-.32-16.21,0-3-.09-6-.09-9.14s0-6.28,0-9.44,0-6.33,0-9.44.06-6.18.09-9.14l.14-8.55c0-2.72.11-5.29.18-7.66C1344.68,98.23,1345,91.9,1345,91.9Z"/><path class="cls-9" d="M1345,254.43s.34,5.85.59,14.63c.06,2.19.13,4.57.18,7.08s.11,5.16.14,7.91.08,5.58.09,8.46,0,5.8,0,8.73,0,5.85,0,8.73-.06,5.71-.09,8.46c-.07,5.48-.18,10.6-.32,15-.24,8.78-.59,14.63-.59,14.63s-.35-5.85-.59-14.63c-.13-4.39-.24-9.51-.32-15,0-2.74-.09-5.58-.09-8.46s0-5.8,0-8.73,0-5.85,0-8.73.06-5.71.09-8.46.09-5.39.14-7.91.11-4.89.18-7.08C1344.68,260.28,1345,254.43,1345,254.43Z"/><path class="cls-10" d="M1220.59,112.85l4.47,9,5.09,10.37c2,4,4.19,8.52,6.57,13.46l7.72,16,8.58,17.82,9.11,19.09,9.35,19.73,9.29,19.76,8.95,19.17c5.8,12.43,11.1,24.09,15.71,34.05,2.3,5,4.38,9.56,6.21,13.63l4.76,10.52,4.11,9.18-4.47-9-5.09-10.37c-2-4-4.19-8.52-6.57-13.46-4.76-9.89-10.39-21.39-16.3-33.78L1279,238.9l-9.35-19.73-9.28-19.76-8.94-19.17-8.3-18-7.41-16.1c-2.31-5-4.38-9.57-6.21-13.63L1224.7,122Z"/><path class="cls-1" d="M354.84,186.16c0-21.7-5.42-40.93-16.57-58.78a140.92,140.92,0,0,0-43.19-42.93,141.22,141.22,0,0,1,31.66,34.89C338.05,137.47,343.55,157,343.55,179v29.91c.59,3.67,2.85,13.21,10.89,19.81a63.33,63.33,0,0,0,10.32,7.06c-6.93-6.54-9.19-14.94-9.91-19.55Z"/><path class="cls-1" d="M167.33,534.37c-17.29-15.6-22.09-37.08-22.09-44.59,0-6.48-.17-15.22-.17-15.29V207.7c0-.09.17-8.91.17-15.31,0-12.29,12.85-62,72.2-62.1a86.21,86.21,0,0,1,25.06,3.47c-9.72-5.47-22.14-9.07-37.94-9.07-58,.12-70.61,48.53-70.61,60.51,0,6.46-.17,15.27-.17,15.33V467.28s.17,8.91.17,15.31C134,491.39,140.73,519.84,167.33,534.37Z"/><path class="cls-1" d="M382,421.69c-1.21-9.57-8.15-17.62-17.57-21.52a26.93,26.93,0,0,1,6.35,14.8l.06.65-.62.19c-3.19,1-8.51,3.44-15.77,9.41-8,6.6-10.3,16.14-10.9,19.93v43.67c0,22-5.5,41.51-16.82,59.63-9.59,15.35-46.74,65.45-122.18,65.45a148,148,0,0,1-50.85-8.66c17.21,8.4,38.32,14.25,63.73,14.25,74.62,0,111.35-49.52,120.83-64.7,11.15-17.86,16.57-37.09,16.57-58.78V452.22c.79-5.06,3.32-14.35,11.47-21C373.32,425.42,378.62,422.85,382,421.69Z"/><path class="cls-1" d="M309.52,405.85A27.41,27.41,0,0,1,311.2,403a31.89,31.89,0,0,0-5.56-2.9A28,28,0,0,1,309.52,405.85Z"/><path class="cls-1" d="M309.52,248.06c-5.13,10.22-16.66,17-29.29,17a36.5,36.5,0,0,1-6.64-.61,32.88,32.88,0,0,0,19.52,6.2c10.3,0,19.82-4.7,25.4-12.13A29.3,29.3,0,0,1,309.52,248.06Z"/><path class="cls-1" d="M338.81,265a35.25,35.25,0,0,1-6.47-.61,32.92,32.92,0,0,0,19.35,6.2c15.68,0,28.59-10.29,30.3-24a45.52,45.52,0,0,1-11.41-6.21C368.39,254.54,355,265,338.81,265Z"/><path class="cls-2" d="M329.76,257.22c-13.42,0-24.83-7.53-29.29-18.09-4.45,10.56-15.87,18.09-29.29,18.09-16.35,0-29.76-11.16-31.17-25.39,3-.93,8.48-3.34,16-9.55,7.38-6.06,10-14.73,10.9-20.52,0,0,0-21.34,0-23.59,0-14.22-13.92-61.3-71.4-61.3h0c-57.3.12-71.4,47.1-71.4,61.3,0,6.43-.17,15.25-.17,15.31V460.26c0,.06.17,8.88.17,15.31,0,14.2,14.1,61.18,71.4,61.3h0c57.49,0,71.4-47.08,71.4-61.3,0-2.36,0-31.24.05-37.47h0c-.92-5.79-3.52-14.46-10.9-20.52C248.5,411.37,243,409,240,408c1.41-14.23,14.82-25.39,31.17-25.39,13.42,0,24.83,7.53,29.29,18.09,4.45-10.56,15.87-18.09,29.29-18.09,16.35,0,29.76,11.16,31.17,25.39-3,.93-8.48,3.34-16,9.55-7.38,6.06-10.27,14.63-11.18,20.42v43.79c0,16.41-2.84,37-16.69,59.2-9.37,15-46.7,65.07-121.5,65.07S83.74,555.8,74,541c-10.81-16.44-16.69-42.79-16.69-59.2V324.42a130.19,130.19,0,0,0-34.92-32.26l.61-.57a130.13,130.13,0,0,0,34.2-31.7l.11-.1V172c0-16.41,5.89-42.77,16.69-59.2,9.73-14.8,46.7-65.07,121.5-65.07S307.64,97.75,317,112.75c13.85,22.18,16.69,42.79,16.69,59.2v29.91c.91,5.79,3.8,14.37,11.18,20.42,7.56,6.21,13.06,8.61,16,9.55C359.52,246.06,346.11,257.22,329.76,257.22Z"/><path class="cls-3" d="M195.51,606.87c-71.44,0-109.24-45.76-122.17-65.43C62.41,524.81,56.51,498.3,56.51,481.8V324.69A128.86,128.86,0,0,0,22,292.84l-.88-.55L22.46,291a129.3,129.3,0,0,0,34.06-31.53V172c0-16.51,5.9-43,16.83-59.64,12.93-19.67,50.72-65.43,122.17-65.43C271,46.88,308.1,97,317.69,112.33,329,130.44,334.51,149.95,334.51,172v29.91c.59,3.67,2.85,13.21,10.89,19.81,7.26,6,12.58,8.4,15.77,9.4l.62.19-.06.65c-1.47,14.88-15.22,26.11-32,26.11-12.62,0-24.16-6.76-29.28-17-5.13,10.22-16.66,17-29.29,17-16.75,0-30.49-11.22-32-26.11l-.06-.65.62-.19c3.19-1,8.51-3.44,15.77-9.4,7.08-5.81,9.68-14.1,10.62-20,0,0-.06-21.22-.06-23.47,0-12-12.56-60.51-70.61-60.51S124.9,166.2,124.9,178.18c0,6.46-.17,15.27-.17,15.33V460.26s.17,8.91.17,15.31c0,12,12.56,60.38,70.61,60.51s70.61-48.5,70.61-60.51c0-2.35,0-31,.05-37.38-.94-5.93-3.55-14.19-10.62-20-7.26-6-12.58-8.41-15.77-9.41l-.62-.19.06-.65c1.47-14.88,15.22-26.11,32-26.11,12.62,0,24.16,6.76,29.29,17,5.13-10.23,16.66-17,29.28-17,16.75,0,30.49,11.22,32,26.11l.06.65-.62.19c-3.19,1-8.51,3.44-15.77,9.41-8,6.6-10.3,16.14-10.9,19.93V481.8c0,22-5.5,41.51-16.82,59.63C308.1,556.78,270.95,606.87,195.51,606.87ZM23.73,292.08A130.25,130.25,0,0,1,58,323.95l.16.21V481.8c0,16.27,5.81,42.4,16.56,58.76,12.79,19.46,50.17,64.71,120.84,64.71,74.62,0,111.35-49.52,120.83-64.7,11.15-17.86,16.57-37.09,16.57-58.78V438c.79-5.06,3.32-14.35,11.47-21,7-5.75,12.31-8.33,15.68-9.49-1.71-13.53-14.88-24-30.3-24-12.64,0-24.11,7.07-28.55,17.6l-.73,1.74-.73-1.74c-4.44-10.53-15.92-17.6-28.55-17.6-15.42,0-28.59,10.51-30.3,24,3.37,1.16,8.67,3.73,15.68,9.49,7.2,5.91,10,14.19,11.07,20.34h.13v.8c0,6.23-.05,35.11-.05,37.47,0,12.32-12.85,62.1-72.2,62.1s-72.2-49.8-72.2-62.1c0-6.48-.17-15.22-.17-15.29V193.49c0-.09.17-8.91.17-15.31,0-12.29,12.85-62,72.2-62.1s72.2,49.78,72.2,62.1c0,2.25,0,23.59,0,23.59-1,6.33-3.73,15-11.19,21.14-7,5.75-12.31,8.33-15.68,9.48,1.72,13.75,14.62,24,30.3,24,12.64,0,24.11-7.07,28.55-17.6l.73-1.74.73,1.74c4.44,10.53,15.91,17.6,28.55,17.6,15.68,0,28.59-10.29,30.3-24-3.37-1.16-8.67-3.73-15.68-9.48-8.16-6.7-10.68-16-11.46-20.92V172c0-21.7-5.42-40.93-16.57-58.78-9.48-15.18-46.21-64.7-120.83-64.7-70.67,0-108,45.26-120.84,64.72C63.91,129.55,58.11,155.68,58.11,172v88.19l-.26.24A130.65,130.65,0,0,1,23.73,292.08Z"/><path class="cls-11" d="M88.88,278.16a43.76,43.76,0,0,0,6.51,8.12,51.14,51.14,0,0,0,8.84,7,55.39,55.39,0,0,0-8.66,7.17,41.06,41.06,0,0,0-6.5,8,52.36,52.36,0,0,0-6.8-8.06,48.12,48.12,0,0,0-8.83-7.07,63.53,63.53,0,0,0,8-6.82A71.85,71.85,0,0,0,88.88,278.16Z"/><path class="cls-12" d="M195.94,573.07l-3,.05-1.63,0-2-.06c-1.41,0-3-.08-4.86-.27l-2.87-.25-3.14-.42-1.67-.23-1.72-.32c-1.17-.23-2.39-.41-3.63-.7A108.5,108.5,0,0,1,155.07,566a114,114,0,0,1-18.28-8.88,109.21,109.21,0,0,1-18.25-13.59,104.31,104.31,0,0,1-15.92-18.51,95.16,95.16,0,0,1-11-22.79,88.7,88.7,0,0,1-3.91-25c-.06-4.14,0-8.15,0-12.16l.12-11.84c.06-7.78.19-54.29.31-61.42s.25-13.87.4-20.09c.27-12.44.6-22.81.86-30.07l.46-11.4.46,11.4c.26,7.26.59,17.62.86,30.07.15,6.22.3,13,.4,20.09s.25,53.64.31,61.42l.23,23.95A84.49,84.49,0,0,0,96,500.9a90.65,90.65,0,0,0,10.3,21.74,106.28,106.28,0,0,0,15,18,115.35,115.35,0,0,0,17.29,13.63,124.18,124.18,0,0,0,17.46,9.35,120.42,120.42,0,0,0,15.84,5.61c1.2.35,2.39.6,3.53.89s2.24.55,3.31.75l3.07.62,2.82.44c1.78.31,3.39.46,4.78.63l1.94.22,1.62.11Z"/><path class="cls-13" d="M195.94,83.47l-2.7.15c-1.75.12-4.32.36-7.57.8a119.08,119.08,0,0,0-26.12,6.73,122.07,122.07,0,0,0-16.27,7.6A113.07,113.07,0,0,0,126.77,110a101.46,101.46,0,0,0-15.06,15A90.41,90.41,0,0,0,100,143.35a83.81,83.81,0,0,0-6.62,20.7,81.62,81.62,0,0,0-1.19,10.62c-.16,3.49-.08,7.11-.16,10.62l-.28,20.3c-.15,6.45-.23,12.56-.41,18.19s-.29,10.8-.48,15.37-.31,8.57-.47,11.85-.28,5.87-.38,7.63l-.15,2.7-.15-2.7c-.1-1.76-.24-4.34-.38-7.63s-.31-7.28-.47-11.85-.31-9.74-.48-15.37S88.18,212,88,205.59l-.28-20.3c0-3.53-.11-7.06,0-10.82A86.11,86.11,0,0,1,89,163.27a83,83,0,0,1,2.71-11.14A87.65,87.65,0,0,1,96,141.41a90.89,90.89,0,0,1,12.43-19.23,105.56,105.56,0,0,1,16-15.28,115,115,0,0,1,17.4-11,117,117,0,0,1,17-7.07,111.41,111.41,0,0,1,15-3.79,103.76,103.76,0,0,1,11.83-1.45c3.29-.22,5.89-.2,7.65-.19Z"/><path class="cls-14" d="M300.38,211s-.22-6.29-.56-18.73l-.33-10-.42-11.19-.12-2.93-.06-1.48-.12-1.43-.26-3-.45-2.9-.22-1.46-.33-1.47-.66-2.95-.85-2.92-.43-1.46-.51-1.44-1-2.88-1.15-2.82c-.72-1.9-1.66-3.7-2.49-5.52a113.24,113.24,0,0,0-5.79-10.28,108.66,108.66,0,0,0-6.4-9c-1.13-1.34-2.19-2.7-3.32-3.89l-1.64-1.81-1.67-1.65c-1.06-1.12-2.23-2-3.25-3s-2.13-1.75-3.11-2.53c-2-1.55-3.73-2.89-5.19-4-2.92-2.14-4.68-3.26-4.68-3.26s1.89.87,5,2.72c1.57.92,3.46,2.08,5.57,3.49,1.06.71,2.17,1.46,3.34,2.29s2.39,1.75,3.55,2.82l1.82,1.59,1.8,1.75c1.25,1.16,2.37,2.51,3.61,3.84a89.09,89.09,0,0,1,6.93,9A96.68,96.68,0,0,1,293.22,135c.87,1.88,1.86,3.73,2.63,5.69l1.21,2.92,1.07,3,.52,1.5.43,1.53.86,3,.67,3.09.33,1.54.23,1.58.44,3.13.17,3,.09,1.55,0,1.49,0,2.94c.08,7.79,0,15.06-.25,21.29s-.52,9.41-.79,13S300.38,211,300.38,211Z"/><path class="cls-15" d="M300.38,439.13s.23,2.07.5,5.69.6,8.81.79,15,.33,13.5.25,21.29l0,2.94,0,1.49-.09,1.55-.17,3-.44,3.13-.23,1.58-.33,1.54-.67,3.09-.86,3-.43,1.53-.52,1.5-1.07,3-1.21,2.92c-.77,2-1.75,3.81-2.63,5.69A96.69,96.69,0,0,1,287,527.6a89.09,89.09,0,0,1-6.93,9c-1.23,1.32-2.36,2.67-3.61,3.84l-1.8,1.75-1.82,1.59c-1.16,1.07-2.42,1.93-3.55,2.82s-2.28,1.58-3.34,2.29c-2.11,1.41-4,2.57-5.57,3.49-3.14,1.85-5,2.72-5,2.72s1.76-1.11,4.68-3.26c1.46-1.07,3.21-2.4,5.19-4,1-.78,2-1.62,3.11-2.53s2.19-1.83,3.25-3l1.67-1.65,1.64-1.81c1.14-1.2,2.19-2.55,3.32-3.89a108.64,108.64,0,0,0,6.4-9,113.24,113.24,0,0,0,5.79-10.28c.83-1.83,1.77-3.63,2.49-5.52l1.15-2.82,1-2.88.51-1.44.43-1.46.85-2.92.66-2.95.33-1.47.22-1.46.45-2.9.26-3,.12-1.43L299,484l.12-2.93.42-11.19.33-10Z"/><path class="cls-1" d="M590.61,99.13a89.49,89.49,0,0,0-27.42-27.25A89.66,89.66,0,0,1,583.29,94,69.41,69.41,0,0,1,594,131.89v81.52a81.75,81.75,0,0,0,22,20.24l.14.09a82,82,0,0,1-14.86-15.29l-.1-.13V136.45A68.44,68.44,0,0,0,590.61,99.13Z"/><path class="cls-1" d="M622.92,238.64q-3.3-2.13-6.36-4.52l-.61.38a81.91,81.91,0,0,0-22,20.2v73.92a69.41,69.41,0,0,1-10.68,37.86C577.2,376.23,553.62,408,505.71,408a94,94,0,0,1-32.29-5.5,91.1,91.1,0,0,0,40.46,9.05c47.38,0,70.7-31.44,76.72-41.08a68.44,68.44,0,0,0,10.52-37.33V258.93l.1-.13A82.76,82.76,0,0,1,622.92,238.64Z"/><path class="cls-1" d="M460.88,324.67c0,5.59,4.3,23.65,21.19,32.88-11-9.9-14-23.54-14-28.31,0-1.5,0-3.2,0-5.35,0-3.73-.08-8.84-.08-16.63V257l.11-.14a83.14,83.14,0,0,1,20.26-18.32A82.81,82.81,0,0,1,468,220.25l-.11-.14V137.86h.31c1.44-10.52,11.24-36.82,45.64-36.89a54.72,54.72,0,0,1,15.92,2.21c-6.17-3.48-14.06-5.76-24.09-5.76-36.85.08-44.83,30.81-44.83,38.42,0,2.72,0,4.07-.07,4.74,0,0,0,.07,0,.08h0c0,.06,0,.12,0,.17v74.36a82.11,82.11,0,0,0,20.08,18.09l.94.86-.55.35a82.16,82.16,0,0,0-20.47,18.32v49.87c0,7.79,0,12.89.08,16.62C460.87,321.47,460.88,323.17,460.88,324.67Z"/><path class="cls-2" d="M587.72,209.12V127.43a68.62,68.62,0,0,0-10.6-37.59c-5.95-9.53-29.65-41.32-77.15-41.32s-71,31.92-77.15,41.32c-6.86,10.44-10.6,27.17-10.6,37.59v81.92l-.07.06a82.63,82.63,0,0,1-21.72,20.13v.36a81.07,81.07,0,0,1,21.79,20.48v73.78c0,10.42,3.74,27.16,10.6,37.59,6.18,9.4,29.65,41.32,77.15,41.32s71.2-31.79,77.15-41.32a68.62,68.62,0,0,0,10.6-37.59V250.07a82.69,82.69,0,0,1,22.22-20.46A82.65,82.65,0,0,1,587.72,209.12Zm-42.41,111.1c0,9-8.84,38.92-45.34,38.92h0c-36.39-.08-45.34-29.91-45.34-38.92,0-4.08-.11-9.69-.11-22v-50a83,83,0,0,1,20.7-18.57l-.39-.36a82.86,82.86,0,0,1-20.32-18.34V128.84c0,12.23.11,6.62.11,2.54,0-9,9-38.85,45.34-38.92h0c36.5,0,45.34,29.89,45.34,38.92,0-6.1,0,38.79,0,79.27a82.93,82.93,0,0,1-21.14,19.06,82.82,82.82,0,0,1,21.15,19.1c0,23.89,0,36,0,48.52C545.31,307.53,545.31,319.32,545.31,320.21Z"/><path class="cls-3" d="M500,403.58c-45.36,0-69.36-29.05-77.57-41.55-6.94-10.56-10.68-27.39-10.68-37.87V250.55a79.88,79.88,0,0,0-21.55-20.22l-.24-.15v-.91l.23-.15a81.8,81.8,0,0,0,21.55-20V127.43c0-10.48,3.74-27.32,10.68-37.87C430.61,77.07,454.61,48,500,48c47.9,0,71.49,31.81,77.58,41.56a69.41,69.41,0,0,1,10.68,37.86v81.52a81.75,81.75,0,0,0,22,20.24l.68.43-.68.43a81.91,81.91,0,0,0-22,20.2v73.92A69.41,69.41,0,0,1,577.55,362C571.46,371.77,547.87,403.58,500,403.58ZM391.09,229.72a81.05,81.05,0,0,1,21.53,20.36l.1.13v73.94c0,10.33,3.69,26.92,10.52,37.32,8.12,12.35,31.86,41.09,76.73,41.09,47.38,0,70.7-31.44,76.72-41.08a68.44,68.44,0,0,0,10.52-37.33V249.9l.1-.13A82.76,82.76,0,0,1,609,229.61a82.66,82.66,0,0,1-21.69-20.2l-.1-.13V127.43A68.44,68.44,0,0,0,576.69,90.1C570.67,80.47,547.35,49,500,49c-44.87,0-68.6,28.74-76.73,41.09-6.83,10.39-10.52,27-10.52,37.32v82.14l-.16.15A82.94,82.94,0,0,1,391.09,229.72ZM500,359.64c-37.69-.08-45.84-31.63-45.84-39.43,0-1.5,0-3.2,0-5.35,0-3.73-.08-8.84-.08-16.63V248l.11-.14a83.14,83.14,0,0,1,20.26-18.32,82.81,82.81,0,0,1-20.26-18.32l-.11-.14V128.84h.31C455.77,118.32,465.56,92,500,92c36.66,0,45.38,29.9,45.83,38.74h0v.69c0,.53,0,1.29,0,2.4v77l-.11.14a83.07,83.07,0,0,1-20.6,18.74,83.06,83.06,0,0,1,20.6,18.79l.11.14v48.69c0,10.2,0,22,0,22.89C545.81,328,537.66,359.64,500,359.64ZM455,248.36v49.87c0,7.79,0,12.89.08,16.62,0,2.16,0,3.87,0,5.36,0,7.6,8,38.34,44.83,38.42s44.83-30.8,44.83-38.42c0-.89,0-12.68,0-22.89V249a82.1,82.1,0,0,0-20.91-18.85l-.68-.43.68-.43a82.14,82.14,0,0,0,20.91-18.8v-79.1h0c0-7.62-8-38.42-44.83-38.42s-44.83,30.81-44.83,38.42c0,2.72,0,4.07-.07,4.74,0,0,0,.07,0,.08h0c0,.06,0,.12,0,.17v74.36a82.11,82.11,0,0,0,20.08,18.09l.94.86-.55.35A82.16,82.16,0,0,0,455,248.36Z"/><path class="cls-16" d="M432.93,219.51a27.79,27.79,0,0,0,4.13,5.15,32.47,32.47,0,0,0,5.61,4.46,35.17,35.17,0,0,0-5.5,4.55,26.07,26.07,0,0,0-4.13,5.06,33.24,33.24,0,0,0-4.32-5.12,30.55,30.55,0,0,0-5.61-4.49,40.33,40.33,0,0,0,5.1-4.33A45.61,45.61,0,0,0,432.93,219.51Z"/><path class="cls-17" d="M566.87,219.51a27.78,27.78,0,0,0,4.13,5.15,32.47,32.47,0,0,0,5.61,4.46,35.17,35.17,0,0,0-5.5,4.55,26.07,26.07,0,0,0-4.13,5.06,33.24,33.24,0,0,0-4.32-5.12,30.55,30.55,0,0,0-5.61-4.49,40.33,40.33,0,0,0,5.1-4.33A45.61,45.61,0,0,0,566.87,219.51Z"/><path class="cls-18" d="M495.87,71l-1.76.12-1,.06-1.15.13c-.83.1-1.78.19-2.83.37l-1.67.26-1.82.37c-.63.12-1.29.27-2,.44s-1.38.32-2.09.53a71.31,71.31,0,0,0-9.38,3.32,73.54,73.54,0,0,0-10.34,5.53,68.32,68.32,0,0,0-10.24,8.07,62.94,62.94,0,0,0-8.87,10.66,53.69,53.69,0,0,0-6.1,12.87,50,50,0,0,0-2.28,14L434.27,142c0,4.61-.11,9.06-.18,13.28s-.15,8.21-.23,11.9c-.16,7.37-.36,13.51-.51,17.81l-.27,6.75-.27-6.75c-.15-4.3-.35-10.44-.51-17.81-.09-3.68-.18-7.68-.23-11.9s-.15-8.67-.18-13.28l-.07-7c0-2.38-.06-4.75,0-7.2a52.53,52.53,0,0,1,2.31-14.82,56.36,56.36,0,0,1,6.5-13.5,61.78,61.78,0,0,1,9.43-11,64.68,64.68,0,0,1,10.81-8,67.53,67.53,0,0,1,10.83-5.26,64.26,64.26,0,0,1,9.72-2.89c.73-.17,1.46-.28,2.15-.41l1-.19,1-.13,1.86-.25,1.7-.15c1.07-.11,2-.13,2.88-.16l1.16,0,1,0Z"/><path class="cls-19" d="M504.11,381.36l1.76-.12,1-.06L508,381c.83-.1,1.78-.19,2.83-.37l1.67-.26,1.82-.37c.63-.12,1.29-.27,2-.44s1.38-.32,2.09-.53a71.32,71.32,0,0,0,9.38-3.32,73.55,73.55,0,0,0,10.34-5.53,68.33,68.33,0,0,0,10.24-8.07,62.94,62.94,0,0,0,8.87-10.66,53.68,53.68,0,0,0,6.1-12.87,50,50,0,0,0,2.28-14l.14-14.18c0-4.6.11-9.06.18-13.28s.15-8.21.23-11.9c.16-7.37.36-13.51.51-17.81l.27-6.75.27,6.75c.15,4.3.35,10.44.51,17.81.09,3.68.18,7.68.23,11.9s.15,8.67.18,13.28l.07,7c0,2.38.06,4.75,0,7.2a52.54,52.54,0,0,1-2.31,14.82,56.36,56.36,0,0,1-6.5,13.5,61.77,61.77,0,0,1-9.43,11,64.68,64.68,0,0,1-10.81,8,67.54,67.54,0,0,1-10.83,5.26,64.26,64.26,0,0,1-9.72,2.89c-.73.17-1.46.28-2.15.41l-1,.19-1,.13-1.86.25-1.7.15c-1.07.11-2,.13-2.88.16l-1.16,0-1,0Z"/><path class="cls-1" d="M1121.6,57.73a16.8,16.8,0,0,1,4,9.28l0,.4-.39.12c-2,.62-5.3,2.15-9.83,5.86a19.66,19.66,0,0,0-6.36,10.33V213.62A81.71,81.71,0,0,0,1131.16,234l.27.17a82,82,0,0,1-15.08-15.52l-.1-.13V88.12A20.66,20.66,0,0,1,1123,77.2a32.58,32.58,0,0,1,9.78-5.91C1132,65.13,1127.62,60.09,1121.6,57.73Z"/><path class="cls-1" d="M1087.42,61.33a17,17,0,0,1,1.06-1.79,19.93,19.93,0,0,0-3.44-1.76A17.48,17.48,0,0,1,1087.42,61.33Z"/><path class="cls-1" d="M1093.16,402.32a18.3,18.3,0,0,1-5.74-6.61c-3.2,6.38-10.39,10.59-18.26,10.59a22.74,22.74,0,0,1-4.09-.37,20.48,20.48,0,0,0,12.27,3.95A19.85,19.85,0,0,0,1093.16,402.32Z"/><path class="cls-1" d="M1132.75,394.88a28.59,28.59,0,0,1-7.26-4c-1.36,8.84-9.71,15.39-19.81,15.39a22,22,0,0,1-4-.37,20.51,20.51,0,0,0,12.16,3.95C1123.63,409.87,1131.68,403.45,1132.75,394.88Z"/><path class="cls-1" d="M1131.16,234.84a81.86,81.86,0,0,0-22.09,20.33V373.3a19.66,19.66,0,0,0,6.36,10.33,39,39,0,0,0,6.59,4.48,21,21,0,0,1-5.75-10.07V259.4l.1-.13a82.67,82.67,0,0,1,21.8-20.29q-3.31-2.13-6.38-4.53Z"/><path class="cls-2" d="M1102.83,368.9V250.54A82.67,82.67,0,0,1,1125.15,230a82.64,82.64,0,0,1-22.32-20.63V79.22a20.18,20.18,0,0,1,6.54-10.65c4.71-3.87,8.14-5.37,10-6-.88-8.87-9.24-15.83-19.43-15.83-8.37,0-15.48,4.69-18.26,11.28-2.78-6.58-9.89-11.28-18.26-11.28-10.19,0-18.55,7-19.43,15.83,1.86.58,5.28,2.08,10,6a19.94,19.94,0,0,1,6.54,11.4V209.4a82.66,82.66,0,0,1-22.18,20.49l.39.36a82.63,82.63,0,0,1,21.72,20.13l.07.07v117.7a19.94,19.94,0,0,1-6.54,11.4c-4.72,3.87-8.14,5.37-10,6,.88,8.87,9.24,15.83,19.43,15.83,8.37,0,15.48-4.69,18.26-11.28,2.78,6.58,9.89,11.28,18.26,11.28,10.19,0,18.55-7,19.43-15.83-1.85-.58-5.28-2.08-10-6A20.18,20.18,0,0,1,1102.83,368.9Z"/><path class="cls-3" d="M1099.93,401.83c-7.87,0-15.06-4.21-18.26-10.59-3.2,6.38-10.39,10.59-18.26,10.59-10.44,0-19-7-19.93-16.28l0-.4.39-.12c2-.62,5.31-2.15,9.83-5.86A19.55,19.55,0,0,0,1060,368V250.65a81.86,81.86,0,0,0-21.56-20l-.93-.85.55-.35A81.78,81.78,0,0,0,1060,209.24V80a19.56,19.56,0,0,0-6.36-11c-4.53-3.72-7.85-5.24-9.83-5.86l-.39-.12,0-.4c.92-9.28,9.49-16.28,19.93-16.28,7.87,0,15.06,4.21,18.26,10.59,3.2-6.38,10.39-10.59,18.26-10.59,10.44,0,19,7,19.93,16.28l0,.4-.39.12c-2,.62-5.3,2.15-9.83,5.86a19.66,19.66,0,0,0-6.36,10.34V209.16a81.73,81.73,0,0,0,22.09,20.37l.66.42-.66.42a81.85,81.85,0,0,0-22.09,20.33V368.84a19.66,19.66,0,0,0,6.36,10.33c4.53,3.72,7.85,5.24,9.83,5.86l.39.12,0,.4C1118.94,394.84,1110.37,401.83,1099.93,401.83Zm-18.26-13,.46,1.08c2.77,6.56,9.92,11,17.8,11,9.78,0,17.82-6.42,18.9-15a32.58,32.58,0,0,1-9.78-5.91,20.66,20.66,0,0,1-6.7-10.91V250.38l.1-.13a82.67,82.67,0,0,1,21.8-20.29,82.64,82.64,0,0,1-21.8-20.33l-.1-.13V79.09a20.66,20.66,0,0,1,6.7-10.92,32.57,32.57,0,0,1,9.78-5.91c-1.07-8.57-9.12-15-18.9-15-7.88,0-15,4.41-17.8,11l-.46,1.08-.46-1.08c-2.77-6.56-9.92-11-17.8-11-9.78,0-17.82,6.42-18.9,15a32.58,32.58,0,0,1,9.78,5.91A20.51,20.51,0,0,1,1061,79.86v129.7l-.1.13A82.76,82.76,0,0,1,1039.17,230a82.51,82.51,0,0,1,21.68,20.13l.16.15V368.15a20.52,20.52,0,0,1-6.72,11.79,32.58,32.58,0,0,1-9.78,5.91c1.07,8.57,9.12,15,18.9,15,7.88,0,15-4.41,17.8-11Z"/><path class="cls-20" d="M1081.73,220a27.78,27.78,0,0,0,4.13,5.15,32.48,32.48,0,0,0,5.61,4.46,35.2,35.2,0,0,0-5.5,4.55,26.09,26.09,0,0,0-4.13,5.06,33.26,33.26,0,0,0-4.32-5.12,30.55,30.55,0,0,0-5.61-4.49,40.33,40.33,0,0,0,5.1-4.33A45.57,45.57,0,0,0,1081.73,220Z"/><path class="cls-21" d="M1081.7,89.61s.34,6.33.59,15.82c.06,2.37.13,4.94.18,7.66s.09,5.59.14,8.55.08,6,.09,9.14,0,6.28,0,9.44,0,6.33,0,9.44-.06,6.18-.09,9.14c-.07,5.93-.18,11.47-.32,16.21-.24,9.49-.59,15.82-.59,15.82s-.35-6.33-.59-15.82c-.13-4.75-.24-10.28-.32-16.21,0-3-.09-6-.09-9.14s0-6.28,0-9.44,0-6.33,0-9.44.06-6.18.09-9.14.09-5.83.14-8.55.11-5.29.18-7.66C1081.35,95.93,1081.7,89.61,1081.7,89.61Z"/><path class="cls-22" d="M1081.7,260.39l.06,1.19c0,.78.1,1.92.15,3.37.09,2.9.28,7,.4,12,.07,2.49.14,5.18.18,8l.14,9c0,3.11.09,6.32.09,9.58s0,6.58,0,9.89,0,6.63,0,9.89-.06,6.47-.09,9.58c-.07,6.22-.19,12-.32,17s-.31,9.12-.4,12c0,1.45-.12,2.59-.15,3.37l-.06,1.19-.06-1.19c0-.78-.1-1.92-.15-3.37-.09-2.9-.28-7-.4-12s-.25-10.77-.32-17c0-3.11-.09-6.32-.09-9.58s0-6.58,0-9.89,0-6.63,0-9.89.06-6.47.09-9.58.1-6.11.14-9,.12-5.54.18-8c.12-5,.31-9.12.4-12,0-1.45.11-2.59.15-3.37Z"/><path class="cls-1" d="M1735.88,185.73c0-21.71-5.42-40.94-16.58-58.8a140.92,140.92,0,0,0-43.65-43.22,141.27,141.27,0,0,1,32.08,35.22c11.31,18.11,16.81,37.61,16.81,59.61v10.24c.59,3.68,2.85,13.22,10.9,19.83a62.92,62.92,0,0,0,10.51,7.16c-7.05-6.56-9.33-15-10.06-19.68Z"/><path class="cls-1" d="M1735.88,495.57l0-116.34c.09-3.25.61-23.1,0-39.94v-3.6l-.14-.19,0-.39c-.78-14.65-2.24-19.1-3.33-20.25a62.27,62.27,0,0,0-15.1-11.45c1.16,1,2.28,2.09,3.33,3.2,1.86,2,3.09,8.84,3.74,21a1.48,1.48,0,0,1,.19,1v3.45c.71,18.33,0,40.26,0,40.47l0,.5V488.39c0,22-5.5,41.5-16.81,59.61-9.59,15.35-46.73,65.43-122.16,65.43a147.88,147.88,0,0,1-51.28-8.82c17.29,8.52,38.54,14.47,64.16,14.47,74.63,0,111.37-49.53,120.85-64.71C1730.46,536.51,1735.88,517.28,1735.88,495.57Z"/><path class="cls-1" d="M1548.53,534.07c-17.42-15.6-22.25-37.19-22.25-44.72,0-6.37-.17-15.22-.17-15.29V207.27c0-.09.17-8.9.17-15.31,0-12.29,12.84-62,72.17-62.07a86,86,0,0,1,25.29,3.55c-9.76-5.54-22.25-9.2-38.17-9.2-58.06.12-70.63,48.55-70.63,60.53,0,6.46-.17,15.27-.17,15.33V466.85s.17,8.91.17,15.31C1514.94,491,1521.75,519.56,1548.53,534.07Z"/><path class="cls-1" d="M1690.53,227.9c-5.11,10.24-16.65,17-29.29,17a36.42,36.42,0,0,1-6.75-.63,32.88,32.88,0,0,0,19.63,6.28c10.31,0,19.85-4.71,25.43-12.16A29.3,29.3,0,0,1,1690.53,227.9Z"/><path class="cls-1" d="M1763,226.48a45.54,45.54,0,0,1-11.46-6.24c-2.17,14.16-15.56,24.67-31.75,24.67a35.23,35.23,0,0,1-6.57-.63,32.94,32.94,0,0,0,19.45,6.28C1748.4,250.56,1761.32,240.25,1763,226.48Z"/><path class="cls-1" d="M1610,355.87a68.64,68.64,0,0,0-14.56,10.94,41.29,41.29,0,0,0-9.24,15.71l-.2.57-.6-.05c-.48,0-1-.1-1.43-.17a26.9,26.9,0,0,0,13.85,5.76,42.34,42.34,0,0,1,9.4-15.72,70.57,70.57,0,0,1,14.9-11.2,69.62,69.62,0,0,1,33.24-9.64,37,37,0,0,0-.53-5.33C1632.92,344.8,1619.86,350.27,1610,355.87Z"/><path class="cls-1" d="M1597.79,278.23a27,27,0,0,0-7.33,1.9,25.91,25.91,0,0,0,2.88,3.61,19,19,0,0,0,9.24,5.18A32.37,32.37,0,0,1,1598,279Z"/><path class="cls-2" d="M1637.07,202.18c-7.56,6.21-13.06,8.61-16,9.55,1.41,14.23,14.82,25.39,31.17,25.39,13.42,0,24.83-7.53,29.29-18.09,4.45,10.56,15.87,18.09,29.29,18.09,16.35,0,29.76-11.16,31.17-25.39-3-.93-8.48-3.34-16-9.55-7.38-6.06-10.27-14.63-11.18-20.42V171.52c0-16.41-2.84-37-16.7-59.21-9.37-15-46.7-65.07-121.5-65.07S1464.75,97.51,1455,112.32c-10.81,16.44-16.69,42.79-16.69,59.21v87.17l-.11.1a130.14,130.14,0,0,1-34.2,31.7l-.61.56a130.19,130.19,0,0,1,34.92,32.26v158c0,16.41,5.89,42.77,16.69,59.21,9.73,14.8,46.7,65.07,121.5,65.07s112.13-50.07,121.5-65.07c13.85-22.18,16.7-42.79,16.7-59.21V365.52h0s.69-21.91,0-40.45v-3.57a.81.81,0,0,0-.19-.62c-.54-10.2-1.59-18.68-3.54-20.74-4-4.18-19.71-20.14-56.36-23.08-21.71-1.74-36.32,2.42-48.45,5.52h0c-9.1,2.19-17.57-.19-22.46-5.32-5.27-5.52-6.39-11.3-7.33-14.06-14.38,1.31-25.65,13.73-25.65,28.89A29,29,0,0,0,1569,319.22a29,29,0,0,0-18.28,27.14c0,15.15,11.28,27.58,25.65,28.89a41.9,41.9,0,0,1,9.42-16,69.25,69.25,0,0,1,14.73-11.07c9.26-5.25,22.67-11.31,45.69-9.18,2.53.23,1.69,134.29,1.69,136.14,0,14.22-13.92,61.3-71.4,61.3h0c-57.3-.12-71.4-47.1-71.4-61.3,0-6.43-.17-15.25-.17-15.31V193.06c0-.06.17-8.88.17-15.31,0-14.2,14.1-61.18,71.4-61.3h0c57.49,0,71.4,47.08,71.4,61.3,0,2.25,0,3.92,0,3.92C1647.06,187.46,1644.45,196.13,1637.07,202.18Z"/><path class="cls-3" d="M1576.52,606.41c-71.42,0-109.22-45.75-122.15-65.42-10.93-16.62-16.82-43.12-16.82-59.62V323.58A128.82,128.82,0,0,0,1403,291.71l-.84-.53,1.34-1.25a129.27,129.27,0,0,0,34.07-31.54V171.52c0-16.5,5.9-43,16.82-59.63,12.93-19.67,50.72-65.42,122.15-65.42,75.43,0,112.57,50.09,122.16,65.44,11.31,18.11,16.81,37.61,16.81,59.61v10.24c.59,3.68,2.85,13.22,10.9,19.83,7.27,6,12.59,8.41,15.78,9.41l.6.19-.06.62c-1.48,14.87-15.2,26.08-31.93,26.08-12.63,0-24.17-6.77-29.29-17-5.11,10.24-16.65,17-29.29,17-16.73,0-30.46-11.21-31.94-26.08l-.06-.62.6-.19c3.19-1,8.51-3.44,15.78-9.41h0c7.08-5.82,9.69-14.11,10.63-20,0,0-.06-1.64-.06-3.81,0-12-12.57-60.53-70.63-60.53s-70.63,48.55-70.63,60.53c0,6.46-.17,15.27-.17,15.33V459.83s.17,8.91.17,15.31c0,12,12.57,60.41,70.63,60.53s70.63-48.52,70.63-60.53v-1.58c.4-78.2-.14-129.06-1.4-133.83-21.89-2-34.95,3.51-44.84,9.12a68.66,68.66,0,0,0-14.56,10.94,41.28,41.28,0,0,0-9.24,15.71l-.2.57-.6-.05c-15-1.37-26.36-14.12-26.36-29.66A30,30,0,0,1,1567,319.22,30,30,0,0,1,1550,292.08c0-15.54,11.33-28.29,26.36-29.65l.6-.05.2.57c.14.42.29.9.45,1.44a28.33,28.33,0,0,0,6.71,12.34c4.94,5.19,13.27,7.14,21.72,5.11l1.88-.49c11.62-3,26.1-6.72,46.81-5.05,24.24,1.94,44.43,10.22,56.86,23.31,1.86,2,3.09,8.84,3.74,21a1.48,1.48,0,0,1,.19,1v3.45c.71,18.33,0,40.26,0,40.47l0,.5V481.36c0,22-5.5,41.5-16.81,59.61C1689.09,556.32,1651.94,606.41,1576.52,606.41ZM1404.69,291a130.23,130.23,0,0,1,34.25,31.89l.15.2v158.3c0,16.28,5.81,42.41,16.57,58.78,12.8,19.46,50.19,64.72,120.86,64.72,74.63,0,111.37-49.53,120.85-64.71,11.15-17.86,16.58-37.09,16.58-58.79L1714,365c.09-3.25.61-23.1,0-39.94v-3.6l-.14-.19,0-.39c-.78-14.65-2.24-19.1-3.33-20.25-12.16-12.82-32-20.93-55.86-22.84-20.46-1.64-34.79,2-46.3,5l-1.89.49c-9,2.17-17.88,0-23.21-5.54a30.14,30.14,0,0,1-7.06-13l-.25-.81c-13.92,1.57-24.34,13.53-24.34,28.06a28.36,28.36,0,0,0,17.78,26.43l1.86.72-1.86.72a28.35,28.35,0,0,0-17.78,26.42c0,14.53,10.43,26.48,24.35,28.06a42.32,42.32,0,0,1,9.4-15.72,70.53,70.53,0,0,1,14.9-11.2c10.16-5.76,23.58-11.37,46.14-9.28,1.15.11,3.08.29,2.4,135.33v1.57c0,12.32-12.84,62.07-72.17,62.07s-72.17-49.78-72.17-62.07c0-6.37-.17-15.22-.17-15.29V193.06c0-.09.17-8.9.17-15.31,0-12.29,12.84-62,72.17-62.07s72.18,49.76,72.18,62.07c0,2.23,0,3.89,0,3.9-1,6.34-3.72,15-11.18,21.14h0c-7,5.76-12.33,8.34-15.69,9.49,1.71,13.77,14.63,24.08,30.33,24.08,12.65,0,24.13-7.08,28.58-17.61l.71-1.68.71,1.68c4.45,10.54,15.93,17.61,28.58,17.61,15.7,0,28.62-10.31,30.33-24.08-3.36-1.15-8.67-3.73-15.69-9.49-8.16-6.7-10.68-16-11.45-20.9V171.52c0-21.71-5.42-40.94-16.58-58.8C1687.89,97.55,1651.16,48,1576.52,48c-70.68,0-108.07,45.27-120.86,64.73-10.76,16.37-16.57,42.5-16.57,58.78V259l-.25.23A130.62,130.62,0,0,1,1404.69,291Z"/><path class="cls-23" d="M1470.61,275.45a43.75,43.75,0,0,0,6.51,8.12,51.14,51.14,0,0,0,8.84,7,55.43,55.43,0,0,0-8.66,7.17,41.06,41.06,0,0,0-6.5,8,52.38,52.38,0,0,0-6.8-8.06,48.13,48.13,0,0,0-8.83-7.07,63.46,63.46,0,0,0,8-6.82A71.85,71.85,0,0,0,1470.61,275.45Z"/><path class="cls-24" d="M1576.42,572.64l-3,0-1.63,0-2-.06c-1.41,0-3-.08-4.86-.27l-2.87-.25-3.14-.42-1.67-.23-1.72-.32c-1.17-.23-2.39-.41-3.63-.7a108.46,108.46,0,0,1-16.42-4.87,114,114,0,0,1-18.28-8.88A109.24,109.24,0,0,1,1499,543.15a104.34,104.34,0,0,1-15.93-18.51,95.17,95.17,0,0,1-11-22.79,88.68,88.68,0,0,1-3.91-25c-.06-4.14,0-8.15,0-12.16s.08-8,.12-11.84c.06-7.78.19-15.29.31-22.42s.25-13.87.4-20.09c.27-12.44.6-22.81.86-30.07l.46-11.4.46,11.4c.26,7.26.59,17.62.86,30.07.15,6.22.3,13,.4,20.09s.25,14.64.31,22.42.15,15.79.23,23.95a84.47,84.47,0,0,0,3.85,23.7,90.66,90.66,0,0,0,10.3,21.74,106.3,106.3,0,0,0,15,18,115.32,115.32,0,0,0,17.29,13.63,124.16,124.16,0,0,0,17.46,9.35,120.4,120.4,0,0,0,15.84,5.61c1.21.35,2.39.6,3.53.89s2.24.55,3.31.75l3.07.62,2.82.44c1.78.31,3.39.46,4.78.63l1.94.22,1.62.11Z"/><path class="cls-25" d="M1470.56,162.17s.54,5.76.93,14.39c.1,2.16.21,4.5.28,7s.18,5.08.22,7.78.13,5.49.14,8.32,0,5.71.06,8.59,0,5.76-.05,8.59-.1,5.62-.14,8.32c-.11,5.4-.29,10.44-.5,14.75-.38,8.64-.93,14.39-.93,14.39s-.55-5.76-.93-14.39c-.21-4.32-.38-9.36-.5-14.75,0-2.7-.14-5.49-.14-8.32s0-5.71-.05-8.59,0-5.76.06-8.59.1-5.62.14-8.32.14-5.31.22-7.78.18-4.81.28-7C1470,167.93,1470.56,162.17,1470.56,162.17Z"/><path class="cls-26" d="M1681.53,324.44s.54,9.77.93,24.42c.1,3.66.21,7.63.28,11.83s.18,8.62.22,13.2.13,9.31.14,14.12,0,9.69.06,14.58,0,9.77-.05,14.58-.1,9.54-.14,14.12c-.11,9.16-.29,17.71-.5,25-.39,14.65-.93,24.42-.93,24.42s-.55-9.77-.93-24.42c-.21-7.33-.38-15.88-.5-25,0-4.58-.14-9.31-.14-14.12s0-9.69-.06-14.58,0-9.77.06-14.58.1-9.54.14-14.12.14-9,.22-13.2.18-8.17.28-11.83C1681,334.21,1681.53,324.44,1681.53,324.44Z"/><path class="cls-27" d="M1536,89s.75-.43,2.22-1.11a65.16,65.16,0,0,1,6.53-2.63c1.43-.49,3-1,4.8-1.51l2.76-.72,1.46-.38,1.53-.32,3.21-.67c1.1-.22,2.25-.36,3.43-.55,2.35-.42,4.84-.6,7.45-.82,1.3-.14,2.63-.18,4-.21l4.15-.11c1.41,0,2.84.09,4.3.14l2.2.09a21.31,21.31,0,0,1,2.23.16l4.53.48,2.31.25,2.31.4,4.7.83a22.25,22.25,0,0,1,2.37.52l2.37.6,4.8,1.21,4.77,1.56c1.61.54,3.2,1,4.84,1.63s3.14,1.21,4.72,1.92a106.58,106.58,0,0,1,18.29,10.14,98.4,98.4,0,0,1,15.7,13.8,95.57,95.57,0,0,1,12,16.28,94.27,94.27,0,0,1,7.9,17.16,67.67,67.67,0,0,1,3.69,16.54c.4,5.19.45,10,.43,14.19s-.12,7.89-.22,10.92-.25,5.4-.34,7l-.16,2.48s0-3.46-.1-9.5c0-3-.13-6.69-.32-10.89s-.48-8.92-1-14.06a70,70,0,0,0-4.09-15.93,99,99,0,0,0-8.06-16.55c-1.67-2.72-3.48-5.42-5.47-8s-4.11-5.18-6.4-7.62a95.72,95.72,0,0,0-15.29-13.3,103.72,103.72,0,0,0-17.67-9.92c-1.52-.69-3.13-1.28-4.68-1.93s-3.12-1.1-4.67-1.64l-4.65-1.6L1604.22,86l-2.31-.62a21.71,21.71,0,0,0-2.31-.54l-4.59-.91-2.26-.46-2.25-.31-4.43-.59a20.75,20.75,0,0,0-2.18-.21l-2.15-.14c-1.43-.08-2.83-.21-4.21-.26l-4.08,0c-1.34,0-2.65,0-3.93.07l-3.77.2c-1.23,0-2.42.24-3.59.34s-2.31.21-3.41.37l-3.2.5-1.53.24-1.46.31-2.77.58c-1.76.44-3.38.84-4.83,1.26-2.88.87-5.14,1.61-6.64,2.22S1536,89,1536,89Z"/><path class="cls-1" d="M727.33,394.76a28.46,28.46,0,0,1-7.39-4.05c-1.3,8.86-9.65,15.44-19.76,15.44a21.89,21.89,0,0,1-4.25-.42,20.54,20.54,0,0,0,12.43,4.13C718.19,409.87,726.28,403.4,727.33,394.76Z"/><path class="cls-1" d="M759.53,100.63a59,59,0,0,1,19.22,3.22,56.89,56.89,0,0,0-27.4-6.94h-1.27c-14,.31-26.42,5.54-34.83,14.74C708,119.59,704.78,129,703.5,134V373.24a19.72,19.72,0,0,0,6.38,10.38,38,38,0,0,0,7.07,4.73A20.77,20.77,0,0,1,710.84,378V138.42c1.29-5,4.57-14.68,12-22.75,8.57-9.37,21.16-14.71,35.44-15Z"/><path class="cls-1" d="M829.86,402.24a18.22,18.22,0,0,1-5.84-6.76c-3.15,6.42-10.36,10.68-18.26,10.68a22.66,22.66,0,0,1-4.37-.43,20.5,20.5,0,0,0,12.55,4.14A19.9,19.9,0,0,0,829.86,402.24Z"/><path class="cls-1" d="M687.76,402.24a18.23,18.23,0,0,1-5.84-6.76c-3.15,6.42-10.36,10.68-18.26,10.68a22.64,22.64,0,0,1-4.37-.43,20.5,20.5,0,0,0,12.55,4.14A19.9,19.9,0,0,0,687.76,402.24Z"/><path class="cls-1" d="M688.05,59.48a30,30,0,0,1,2.62,2.85c1,1.16,2.12,2.48,3.22,3.94.69-.43,1.4-.85,2.1-1.26A28.27,28.27,0,0,0,688.05,59.48Z"/><path class="cls-1" d="M820.53,78.37c1.17,1.23,2.34,2.55,3.5,3.95.43-.53.88-1,1.32-1.54a84.25,84.25,0,0,0-14.59-11.19A85.36,85.36,0,0,1,820.53,78.37Z"/><path class="cls-1" d="M1011.53,394.76a28.47,28.47,0,0,1-7.39-4.05c-1.3,8.86-9.65,15.44-19.76,15.44a21.9,21.9,0,0,1-4.25-.42,20.55,20.55,0,0,0,12.43,4.13C1002.4,409.87,1010.48,403.4,1011.53,394.76Z"/><path class="cls-1" d="M995.12,219.35l-.09-.11V89.58a20.78,20.78,0,0,1,6.82-12,32.83,32.83,0,0,1,9.95-6c-.76-6.22-5.33-11.44-11.5-13.87a17,17,0,0,1,4.21,9.56l0,.34-.33.1c-2,.64-5.4,2.19-10,6A19.94,19.94,0,0,0,987.7,85.1V214.38a82,82,0,0,0,21.43,19.56l.47.3-.85.78a82,82,0,0,0-21,19.31V372.55a19.6,19.6,0,0,0,6.38,11.07,38,38,0,0,0,7.07,4.73A20.71,20.71,0,0,1,995,377.2V258.61l.09-.11a82.86,82.86,0,0,1,21.27-19.57A82.79,82.79,0,0,1,995.12,219.35Z"/><path class="cls-1" d="M922.39,103.4A51.31,51.31,0,0,0,898,96.93c-15-.29-29.5,5.13-39,14.59S846.57,137.8,845.6,147V372.55A19.6,19.6,0,0,0,852,383.62a38,38,0,0,0,7.08,4.73,20.71,20.71,0,0,1-6.12-11.15V151.52c1-9.36,4.07-26.43,13.66-36s24.4-15.15,39.57-14.84A55,55,0,0,1,922.39,103.4Z"/><path class="cls-1" d="M869.43,394.76a28.5,28.5,0,0,1-7.39-4.05c-1.3,8.86-9.65,15.44-19.76,15.44a21.89,21.89,0,0,1-4.25-.42,20.54,20.54,0,0,0,12.43,4.13C860.29,409.87,868.38,403.4,869.43,394.76Z"/><path class="cls-1" d="M972,402.24a18.23,18.23,0,0,1-5.84-6.76c-3.15,6.42-10.36,10.68-18.26,10.68a22.64,22.64,0,0,1-4.37-.43A20.5,20.5,0,0,0,956,409.87,19.9,19.9,0,0,0,972,402.24Z"/><path class="cls-2" d="M1002.78,230.2l.39-.36a82.76,82.76,0,0,1-21.63-19.78V80.56a20.27,20.27,0,0,1,6.66-11.71c4.78-3.92,8.26-5.45,10.14-6-.89-9-9.37-16.05-19.71-16.05-13.29,0-21.46,4.91-26.67,11.38-1.18,1.32-2.34,2.76-3.45,4.24a87.45,87.45,0,0,0-10.67-5.71c-33-14.86-83.42-16.38-115.76,17.53q-2,2.1-3.8,4.33-1.8-2.21-3.8-4.33C782.13,40.3,731.73,41.82,698.72,56.68a87.44,87.44,0,0,0-10.67,5.71c-1.11-1.48-2.27-2.92-3.45-4.24-5.21-6.47-13.39-11.38-26.67-11.38-10.34,0-18.81,7.06-19.7,16.05,1.88.59,5.36,2.11,10.14,6A20.27,20.27,0,0,1,655,80.56V210.07a82.75,82.75,0,0,1-21.63,19.78l.39.36A82.7,82.7,0,0,1,655,249.73V368.09a19.93,19.93,0,0,1-6.54,11.4c-4.71,3.87-8.14,5.37-10,6,.88,8.87,9.24,15.83,19.43,15.83,8.36,0,15.48-4.69,18.26-11.28,2.78,6.58,9.89,11.28,18.26,11.28,10.19,0,18.55-7,19.43-15.83-1.86-.58-5.28-2.08-10-6a20.18,20.18,0,0,1-6.54-10.65V129.5c1.19-4.62,4.42-14.44,11.86-22.58,19-20.74,55.69-18.9,74.4-.16,9.51,9.53,12.57,26.52,13.54,35.74V368.84a20.18,20.18,0,0,1-6.54,10.65c-4.71,3.87-8.14,5.37-10,6,.88,8.87,9.24,15.83,19.43,15.83,8.36,0,15.48-4.69,18.26-11.28,2.78,6.58,9.89,11.28,18.26,11.28,10.19,0,18.55-7,19.43-15.83-1.85-.58-5.28-2.08-10-6a19.93,19.93,0,0,1-6.54-11.4V142.5c1-9.21,4-26.21,13.54-35.74,18.71-18.74,55.43-20.58,74.4.16,7.44,8.14,10.67,18,11.86,22.58V368.84a20.18,20.18,0,0,1-6.54,10.65c-4.71,3.87-8.14,5.37-10,6,.88,8.87,9.24,15.83,19.43,15.83,8.37,0,15.48-4.69,18.26-11.28,2.78,6.58,9.89,11.28,18.26,11.28,10.19,0,18.55-7,19.43-15.83-1.86-.58-5.28-2.08-10-6a19.94,19.94,0,0,1-6.54-11.4V249.73A82.7,82.7,0,0,1,1002.78,230.2Z"/><path class="cls-3" d="M978.64,401.7c-7.9,0-15.11-4.25-18.26-10.68-3.15,6.42-10.36,10.68-18.26,10.68-10.4,0-18.94-7-19.85-16.21l0-.34.33-.1c2-.63,5.32-2.15,9.86-5.88a19.74,19.74,0,0,0,6.38-10.38V129.56c-1.28-5-4.51-14.43-11.75-22.34-8.41-9.2-20.79-14.44-34.83-14.74-15-.29-29.5,5.13-39,14.59s-12.44,26.27-13.42,35.48V368.09a19.61,19.61,0,0,0,6.38,11.07c4.53,3.72,7.86,5.25,9.86,5.88l.33.1,0,.34c-.92,9.24-9.45,16.21-19.86,16.21-7.9,0-15.1-4.25-18.26-10.68-3.15,6.42-10.36,10.68-18.26,10.68-10.4,0-18.94-7-19.86-16.21l0-.34.33-.1c2-.63,5.32-2.15,9.86-5.88a19.72,19.72,0,0,0,6.38-10.38V142.5c-1-9.16-4-26-13.41-35.43-9.18-9.19-23.19-14.61-37.68-14.61h-1.27c-14,.31-26.42,5.54-34.83,14.74-7.24,7.92-10.46,17.37-11.75,22.34V368.78a19.72,19.72,0,0,0,6.38,10.38c4.53,3.72,7.86,5.25,9.86,5.88l.33.1,0,.34c-.92,9.24-9.45,16.21-19.86,16.21-7.9,0-15.1-4.25-18.26-10.68-3.15,6.42-10.36,10.68-18.26,10.68-10.4,0-18.94-7-19.86-16.21l0-.34.33-.1c2-.63,5.32-2.15,9.85-5.88A19.61,19.61,0,0,0,654.61,368V249.87a81.94,81.94,0,0,0-21-19.31l-.85-.78.47-.3a82,82,0,0,0,21.43-19.56V80.56a19.92,19.92,0,0,0-6.5-11.38c-4.6-3.77-8-5.32-10-6l-.33-.1,0-.34c.93-9.37,9.58-16.43,20.13-16.43,11.75,0,20.83,3.88,27,11.54,1,1.16,2.12,2.48,3.22,3.94a88.41,88.41,0,0,1,10.39-5.53c33.51-15.08,84.18-16,116.24,17.62,1.17,1.23,2.34,2.55,3.49,3.95,1.14-1.38,2.31-2.71,3.49-3.95C853.84,40.29,904.5,41.2,938,56.29a88.43,88.43,0,0,1,10.39,5.53c1.12-1.47,2.2-2.8,3.24-4,6.16-7.64,15.24-11.53,27-11.53,10.54,0,19.2,7.06,20.13,16.43l0,.34-.33.1c-2,.64-5.4,2.18-10,6A19.94,19.94,0,0,0,982,80.64V209.92a82,82,0,0,0,21.43,19.56l.47.3-.85.78a82,82,0,0,0-21,19.31V368.09a19.61,19.61,0,0,0,6.38,11.07c4.53,3.72,7.86,5.25,9.85,5.88l.33.1,0,.34C997.58,394.73,989,401.7,978.64,401.7ZM960.38,388.9l.39.93c2.78,6.59,10,11,17.87,11,9.83,0,17.92-6.47,19-15.1a32.34,32.34,0,0,1-9.81-5.92,20.45,20.45,0,0,1-6.68-11.64V249.58l.09-.11a82.86,82.86,0,0,1,21.27-19.57,82.79,82.79,0,0,1-21.27-19.57l-.09-.11V80.56a20.79,20.79,0,0,1,6.82-12,32.81,32.81,0,0,1,9.95-6c-1.05-8.62-9.43-15.33-19.24-15.33-11.48,0-20.34,3.78-26.34,11.23-1.11,1.24-2.26,2.65-3.44,4.23l-.23.31-.33-.21a87.69,87.69,0,0,0-10.62-5.68c-33.24-15-83.49-15.89-115.27,17.43-1.28,1.35-2.55,2.79-3.78,4.3l-.33.41-.33-.41c-1.24-1.52-2.51-3-3.78-4.3-31.79-33.32-82-32.39-115.28-17.43a87.77,87.77,0,0,0-10.62,5.68l-.33.21-.23-.31c-1.17-1.56-2.33-3-3.43-4.22-6-7.46-14.88-11.24-26.36-11.24-10,0-18.18,6.57-19.24,15.33a32.76,32.76,0,0,1,9.95,6,20.77,20.77,0,0,1,6.81,12V210.21l-.09.11a82.77,82.77,0,0,1-21.27,19.58,82.55,82.55,0,0,1,21.27,19.57l.09.11V368.09a20.46,20.46,0,0,1-6.69,11.73,32.34,32.34,0,0,1-9.81,5.92c1,8.64,9.14,15.1,19,15.1,7.91,0,15.08-4.43,17.86-11l.39-.93.39.93c2.78,6.59,10,11,17.86,11,9.84,0,17.92-6.47,19-15.1a32.32,32.32,0,0,1-9.81-5.92,20.58,20.58,0,0,1-6.68-10.88V129.4c1.29-5,4.57-14.68,12-22.76,8.57-9.37,21.16-14.71,35.44-15h1.29c14.71,0,28.94,5.5,38.28,14.86,9.59,9.61,12.67,26.67,13.66,36V368.94a20.58,20.58,0,0,1-6.68,10.88,32.32,32.32,0,0,1-9.81,5.92c1,8.64,9.14,15.1,19,15.1,7.91,0,15.08-4.43,17.86-11l.39-.93.39.93c2.78,6.59,10,11,17.86,11,9.83,0,17.92-6.47,19-15.1a32.34,32.34,0,0,1-9.81-5.92A20.45,20.45,0,0,1,839,368.18V142.5c1-9.36,4.07-26.43,13.66-36s24.4-15.15,39.57-14.84c14.28.31,26.87,5.65,35.44,15,7.39,8.08,10.66,17.72,12,22.76V368.94A20.6,20.6,0,0,1,933,379.82a32.34,32.34,0,0,1-9.81,5.92c1,8.64,9.14,15.1,19,15.1,7.91,0,15.09-4.43,17.86-11Z"/><path class="cls-28" d="M675.15,220a27.79,27.79,0,0,0,4.13,5.15,32.48,32.48,0,0,0,5.61,4.46,35.18,35.18,0,0,0-5.5,4.55,26.11,26.11,0,0,0-4.13,5.06A33.23,33.23,0,0,0,671,234.1a30.56,30.56,0,0,0-5.61-4.49,40.37,40.37,0,0,0,5.1-4.33A45.62,45.62,0,0,0,675.15,220Z"/><path class="cls-29" d="M960.94,220a27.79,27.79,0,0,0,4.13,5.15,32.47,32.47,0,0,0,5.61,4.46,35.2,35.2,0,0,0-5.5,4.55,26.09,26.09,0,0,0-4.13,5.06,33.26,33.26,0,0,0-4.32-5.12,30.55,30.55,0,0,0-5.61-4.49,40.33,40.33,0,0,0,5.1-4.33A45.6,45.6,0,0,0,960.94,220Z"/><path class="cls-30" d="M675.81,97.81s.34,6.33.59,15.82c.06,2.37.13,4.94.18,7.66s.09,5.58.14,8.55.08,6,.09,9.14,0,6.28,0,9.44,0,6.33,0,9.44-.06,6.18-.09,9.14c-.07,5.93-.18,11.47-.32,16.21-.24,9.49-.59,15.82-.59,15.82s-.35-6.33-.59-15.82c-.13-4.74-.24-10.28-.32-16.21,0-3-.09-6-.09-9.14s0-6.28,0-9.44,0-6.33,0-9.44.06-6.18.09-9.14.09-5.83.14-8.55.11-5.29.18-7.66C675.47,104.13,675.81,97.81,675.81,97.81Z"/><path class="cls-31" d="M675.81,260.33s.34,5.85.59,14.63c.06,2.19.13,4.57.18,7.08s.11,5.16.14,7.91.08,5.58.09,8.46,0,5.8,0,8.73,0,5.85,0,8.73-.06,5.71-.09,8.46c-.07,5.48-.18,10.6-.32,15-.24,8.78-.59,14.63-.59,14.63s-.35-5.85-.59-14.63c-.13-4.39-.24-9.51-.32-15,0-2.74-.09-5.58-.09-8.46s0-5.8,0-8.73,0-5.85,0-8.73.06-5.71.09-8.46.09-5.39.14-7.91.11-4.89.18-7.08C675.47,266.18,675.81,260.33,675.81,260.33Z"/><path class="cls-32" d="M960.91,97.81s.34,6.33.59,15.82c.06,2.37.13,4.94.18,7.66s.09,5.58.14,8.55.08,6,.09,9.14,0,6.28,0,9.44,0,6.33,0,9.44-.06,6.18-.09,9.14c-.07,5.93-.18,11.47-.32,16.21-.24,9.49-.59,15.82-.59,15.82s-.35-6.33-.59-15.82c-.13-4.74-.24-10.28-.32-16.21,0-3-.09-6-.09-9.14s0-6.28,0-9.44,0-6.33,0-9.44.06-6.18.09-9.14.09-5.83.14-8.55.11-5.29.18-7.66C960.56,104.13,960.91,97.81,960.91,97.81Z"/><path class="cls-33" d="M960.91,260.33s.34,5.85.59,14.63c.06,2.19.13,4.57.18,7.08s.11,5.16.14,7.91.08,5.58.09,8.46,0,5.8,0,8.73,0,5.85,0,8.73-.06,5.71-.09,8.46c-.07,5.48-.18,10.6-.32,15-.24,8.78-.59,14.63-.59,14.63s-.35-5.85-.59-14.63c-.13-4.39-.24-9.51-.32-15,0-2.74-.09-5.58-.09-8.46s0-5.8,0-8.73,0-5.85,0-8.73.06-5.71.09-8.46.09-5.39.14-7.91.11-4.89.18-7.08C960.56,266.18,960.91,260.33,960.91,260.33Z"/><path class="cls-34" d="M818,155.36l.3,8.53c.17,5.43.38,13.19.56,22.5.09,4.65.19,9.7.26,15s.17,11,.2,16.78.12,11.83.13,17.94,0,12.31.05,18.52,0,12.41-.05,18.52-.09,12.12-.13,17.94-.13,11.44-.2,16.78-.16,10.38-.26,15c-.18,9.31-.39,17.07-.56,22.5l-.3,8.53-.3-8.53c-.17-5.43-.39-13.19-.56-22.5-.09-4.65-.19-9.7-.26-15s-.16-11-.2-16.78-.13-11.83-.13-17.94,0-12.31-.05-18.52,0-12.41.05-18.52.09-12.12.13-17.94.13-11.44.2-16.78.16-10.38.26-15c.18-9.31.39-17.07.56-22.5Z"/><path class="cls-35" d="M696,84.7s.35-.33,1-.91l1.29-1c.52-.39,1.12-.84,1.81-1.34l2.31-1.56c.87-.53,1.79-1.12,2.81-1.72s2.11-1.19,3.28-1.8,2.43-1.19,3.75-1.79,2.72-1.16,4.18-1.71,3-1.06,4.59-1.55,3.24-.93,4.94-1.34,3.46-.72,5.25-1.06l5.49-.73c1.87-.14,3.76-.24,5.66-.34l.72,0h.72l1.44,0,2.89.05,1.45,0,1.45.13,2.89.27c1,.1,1.9.17,2.92.31l2.83.49c1.88.33,3.75.61,5.62,1.13A78.64,78.64,0,0,1,776,73.58l2.49,1A25.28,25.28,0,0,1,781,75.72l2.31,1.19c.76.39,1.52.76,2.22,1.21l2.11,1.28,1,.63c.34.21.65.45,1,.68L791.48,82c.31.22.62.43.91.66l.85.7c1.12.93,2.23,1.77,3.17,2.7l1.41,1.32c.46.43.86.89,1.27,1.31L800.25,90l1,1.21c.67.76,1.24,1.51,1.74,2.18a34.15,34.15,0,0,1,2.18,3.24c.46.78.67,1.21.67,1.21s-.25-.41-.76-1.15-1.32-1.78-2.4-3.05c-.54-.64-1.14-1.34-1.85-2.05l-1.08-1.13-1.23-1.15c-.43-.39-.85-.82-1.32-1.21l-1.46-1.22c-1-.86-2.09-1.65-3.23-2.51a71.06,71.06,0,0,0-7.78-4.87c-.7-.42-1.45-.76-2.21-1.12l-2.29-1.09c-.76-.39-1.58-.68-2.39-1l-2.45-1a26,26,0,0,0-2.54-.88l-2.6-.82L769,73.16l-1.34-.32-2.69-.66a55.89,55.89,0,0,0-5.56-1.08l-2.83-.48c-.87-.11-1.87-.18-2.79-.28l-2.83-.28-1.41-.14-1.42,0-2.82-.07-1.41,0-.7,0-.7,0-5.54.26-5.38.61-5.16.92c-1.67.36-3.29.79-4.88,1.17s-3.08.94-4.55,1.38-2.84,1-4.19,1.51-2.57,1.1-3.78,1.59-2.29,1.09-3.35,1.58-2,1.06-2.88,1.53l-2.39,1.41-1.88,1.2-1.37.93C696.38,84.41,696,84.7,696,84.7Z"/><path class="cls-36" d="M940.14,84.7s-.38-.3-1.1-.82l-1.37-.93-1.88-1.2-2.39-1.41c-.89-.47-1.84-1-2.88-1.53s-2.16-1-3.35-1.58-2.45-1.07-3.78-1.59-2.73-1-4.19-1.51-3-.95-4.55-1.38-3.21-.81-4.88-1.17l-5.16-.92-5.38-.61-5.54-.26-.7,0-.7,0-1.41,0-2.82.07-1.42,0-1.41.14-2.83.28c-.93.1-1.92.17-2.79.28l-2.83.48a55.92,55.92,0,0,0-5.56,1.08l-2.69.66-1.34.32-1.31.41-2.6.82a26,26,0,0,0-2.54.88l-2.45,1c-.81.33-1.63.62-2.39,1l-2.29,1.09c-.75.36-1.51.7-2.21,1.12a71.15,71.15,0,0,0-7.79,4.87c-1.14.86-2.26,1.65-3.23,2.51l-1.46,1.22c-.47.39-.89.82-1.32,1.21l-1.23,1.15-1.08,1.13c-.71.71-1.31,1.42-1.85,2.05-1.09,1.27-1.88,2.32-2.4,3.05s-.76,1.15-.76,1.15.21-.43.67-1.21a34.14,34.14,0,0,1,2.18-3.24c.51-.67,1.07-1.42,1.74-2.18l1-1.21,1.17-1.24c.41-.42.81-.88,1.27-1.31l1.41-1.32c.94-.93,2-1.77,3.17-2.7l.85-.7c.29-.22.6-.43.91-.66l1.88-1.34c.32-.22.64-.47,1-.68l1-.63,2.11-1.28c.7-.45,1.46-.82,2.22-1.21l2.31-1.19a25.24,25.24,0,0,1,2.42-1.09l2.49-1a78.63,78.63,0,0,1,10.72-3.34c1.86-.53,3.74-.8,5.62-1.13l2.83-.49c1-.14,1.95-.21,2.92-.31l2.9-.27,1.45-.13,1.45,0,2.89-.05,1.44,0H893l.72,0c1.91.1,3.8.2,5.66.34l5.49.73c1.79.34,3.54.7,5.25,1.06s3.34.91,4.94,1.34,3.11,1,4.59,1.55,2.84,1.17,4.18,1.71,2.57,1.21,3.75,1.79,2.25,1.24,3.28,1.8,1.94,1.19,2.81,1.72L936,81.41c.68.49,1.28.94,1.81,1.34l1.29,1C939.79,84.38,940.14,84.7,940.14,84.7Z"/><path class="cls-1" d="M1243,578.45l.12.11-.43.27a54.94,54.94,0,0,0-14.33,13.07v86.7a13.24,13.24,0,0,0,4.32,7.6,27.46,27.46,0,0,0,4.07,2.83,14.49,14.49,0,0,1-3.69-7.24V594.69l.08-.1a55.64,55.64,0,0,1,14.16-13.07C1245.82,580.56,1244.39,579.53,1243,578.45Z"/><path class="cls-1" d="M1133.2,545V679.54a13.13,13.13,0,0,0,4.24,6.89,27,27,0,0,0,4,2.8,14.25,14.25,0,0,1-3.56-6.48V555Z"/><path class="cls-1" d="M1213.79,470.14a11.55,11.55,0,0,1,.63-1.06,13.29,13.29,0,0,0-2-1.06A11.74,11.74,0,0,1,1213.79,470.14Z"/><path class="cls-1" d="M1236.9,468a11.3,11.3,0,0,1,2.55,6.08l0,.32-.3.1a20.41,20.41,0,0,0-6.58,3.92,13.06,13.06,0,0,0-4.25,7.43V565A54.85,54.85,0,0,0,1242,577.64a55.08,55.08,0,0,1-8.85-9.18l-.08-.1V488.82a13.83,13.83,0,0,1,4.53-8,22,22,0,0,1,6.53-4A11.37,11.37,0,0,0,1236.9,468Z"/><path class="cls-1" d="M1132,473.94a23,23,0,0,0-5.8-4.47c.3.29.59.58.89.88a59.18,59.18,0,0,1,6.1,8.08l66.06,142.07v-6.88l-61.26-131.76A58.44,58.44,0,0,0,1132,473.94Z"/><path class="cls-1" d="M1149,694.06a19.24,19.24,0,0,1-4.76-2.61c-1,5.91-6.56,10.28-13.33,10.28a14.79,14.79,0,0,1-2.45-.21,13.73,13.73,0,0,0,7.93,2.49C1142.87,704,1148.23,699.75,1149,694.06Z"/><path class="cls-1" d="M1231.16,703.83c6-.63,12.35-3.94,13.15-9.95a19.4,19.4,0,0,1-4.77-2.6c-1,6.2-7.58,9.62-13.78,10.26a27.64,27.64,0,0,1-9.34-.49C1220.58,703.53,1225.39,704.42,1231.16,703.83Z"/><path class="cls-1" d="M1122.39,699a12.34,12.34,0,0,1-3.77-4.32,13.73,13.73,0,0,1-12.25,7,15.36,15.36,0,0,1-2.51-.21,13.72,13.72,0,0,0,8,2.49A13.26,13.26,0,0,0,1122.39,699Z"/><path class="cls-2" d="M1224.12,675.65V588.77a55.51,55.51,0,0,1,14.51-13.27l-.26-.24a55.47,55.47,0,0,1-14.25-13.1v-79.4a13.37,13.37,0,0,1,4.39-7.65,20.83,20.83,0,0,1,6.71-4c-.59-6-6.2-10.62-13-10.62-5.61,0-10.38,3.15-12.25,7.56-1.86-4.42-6.64-7.56-12.25-7.56-6.84,0-12.44,4.67-13,10.62a20.84,20.84,0,0,1,6.71,4,13.54,13.54,0,0,1,4.39,7.15v137L1129,475.64a58.42,58.42,0,0,0-6-8c-6.24-6.54-13.19-7.64-20.06-6.92s-12.93,4.57-13.53,10.61a21.13,21.13,0,0,1,6.8,4,13.6,13.6,0,0,1,4.47,7.86v78.88a55.51,55.51,0,0,1-14.51,13.27l.26.24a55.48,55.48,0,0,1,14.25,13.1v87.4a13.37,13.37,0,0,1-4.39,7.65,20.83,20.83,0,0,1-6.71,4c.59,6,6.2,10.62,13,10.62,5.61,0,10.38-3.15,12.25-7.56,1.86,4.42,6.64,7.56,12.25,7.56,6.84,0,12.44-4.67,13-10.62a20.83,20.83,0,0,1-6.71-4,13.53,13.53,0,0,1-4.39-7.15V540.22l66.79,143v0a58.4,58.4,0,0,0,6,8c6.24,6.54,13.19,7.64,20.06,6.92s12.93-4.57,13.53-10.61a21.13,21.13,0,0,1-6.8-4A13.6,13.6,0,0,1,1224.12,675.65Z"/><path class="cls-3" d="M1127,698.74a13.73,13.73,0,0,1-12.25-7,13.73,13.73,0,0,1-12.25,7c-7,0-12.8-4.72-13.42-11l0-.32.3-.1a20.4,20.4,0,0,0,6.58-3.92,13,13,0,0,0,4.25-7.43V588.82a54.88,54.88,0,0,0-14.07-12.9l-.69-.63.43-.27A55,55,0,0,0,1100.19,562V483.21a13.27,13.27,0,0,0-4.33-7.55,20.71,20.71,0,0,0-6.67-4l-.3-.1,0-.32c.66-6.64,7.45-10.29,13.88-11,8.48-.88,15,1.36,20.39,7a59.19,59.19,0,0,1,6.1,8.08l66.06,142.07V482.32a13.12,13.12,0,0,0-4.24-6.89,20.4,20.4,0,0,0-6.58-3.92l-.3-.1,0-.32c.62-6.25,6.39-11,13.42-11a13.73,13.73,0,0,1,12.25,7,13.73,13.73,0,0,1,12.25-7c7,0,12.8,4.72,13.42,11l0,.32-.3.1a20.4,20.4,0,0,0-6.58,3.92,13.05,13.05,0,0,0-4.25,7.43V562a54.9,54.9,0,0,0,14.07,12.9l.69.63-.43.27a54.94,54.94,0,0,0-14.33,13.07v86.7a13.24,13.24,0,0,0,4.32,7.6,20.71,20.71,0,0,0,6.67,4l.3.1,0,.32c-.66,6.64-7.45,10.29-13.88,11-8.5.88-15-1.36-20.39-7a59.3,59.3,0,0,1-6.1-8.08l-.06-.14-66-141.3V676.55a13.13,13.13,0,0,0,4.24,6.89,20.4,20.4,0,0,0,6.58,3.92l.3.1,0,.32C1139.82,694,1134,698.74,1127,698.74Zm-12.25-9,.36.85C1117,695,1121.75,698,1127,698c6.51,0,11.87-4.26,12.61-10a22,22,0,0,1-6.53-4,13.92,13.92,0,0,1-4.52-7.35V538.46l.74,1.59,66.81,143a58.41,58.41,0,0,0,6,7.88c5.24,5.49,11.51,7.65,19.73,6.79,6-.63,12.35-3.94,13.15-9.95a22.36,22.36,0,0,1-6.62-4,14,14,0,0,1-4.6-8.08V588.64l.08-.1A55.65,55.65,0,0,1,1238,575.46a55.41,55.41,0,0,1-14.16-13.06l-.08-.1V482.77a13.83,13.83,0,0,1,4.53-8,22,22,0,0,1,6.53-4c-.74-5.7-6.1-10-12.61-10-5.26,0-10,2.94-11.89,7.32l-.36.85-.36-.85c-1.85-4.38-6.62-7.32-11.89-7.32-6.51,0-11.87,4.26-12.61,10a22,22,0,0,1,6.53,4,13.93,13.93,0,0,1,4.52,7.35V621L1128.6,475.8a58.46,58.46,0,0,0-6-7.92c-5.24-5.49-11.52-7.64-19.73-6.79-6,.62-12.35,3.94-13.15,9.95a22.34,22.34,0,0,1,6.62,4,14,14,0,0,1,4.6,8.08v79.09l-.08.1a55.65,55.65,0,0,1-14.16,13.07,55.4,55.4,0,0,1,14.16,13.06l.08.1v87.53a13.82,13.82,0,0,1-4.53,8,22,22,0,0,1-6.53,4c.74,5.7,6.1,10,12.61,10,5.26,0,10-2.94,11.89-7.32Z"/><path class="cls-37" d="M1113.95,568.75a18.64,18.64,0,0,0,2.77,3.46,21.79,21.79,0,0,0,3.76,3,23.59,23.59,0,0,0-3.69,3.05,17.49,17.49,0,0,0-2.77,3.39,22.3,22.3,0,0,0-2.9-3.44,20.5,20.5,0,0,0-3.76-3,27,27,0,0,0,3.42-2.91A30.6,30.6,0,0,0,1113.95,568.75Z"/><path class="cls-38" d="M1210.4,568.76a18.64,18.64,0,0,0,2.77,3.46,21.78,21.78,0,0,0,3.76,3,23.59,23.59,0,0,0-3.69,3.05,17.49,17.49,0,0,0-2.77,3.39,22.3,22.3,0,0,0-2.9-3.43,20.5,20.5,0,0,0-3.76-3,27,27,0,0,0,3.42-2.91A30.6,30.6,0,0,0,1210.4,568.76Z"/><path class="cls-39" d="M1113.93,494.79s.23,4.24.39,10.61c0,1.59.09,3.32.12,5.14l.09,5.74c0,2,.06,4,.06,6.13s0,4.21,0,6.33,0,4.24,0,6.33,0,4.14-.06,6.13c0,4-.12,7.69-.21,10.87-.16,6.37-.4,10.61-.4,10.61s-.23-4.24-.4-10.61c-.09-3.18-.16-6.9-.21-10.87,0-2-.06-4-.06-6.13l0-6.33c0-2.12,0-4.24,0-6.33s0-4.14.06-6.13l.09-5.74c0-1.82.08-3.55.12-5.14C1113.7,499,1113.93,494.79,1113.93,494.79Z"/><path class="cls-40" d="M1113.93,603.81s.23,3.92.39,9.81c0,1.47.09,3.07.12,4.75s.08,3.46.09,5.3.06,3.74.06,5.67,0,3.89,0,5.86,0,3.92,0,5.86,0,3.83-.06,5.67c0,3.68-.12,7.11-.21,10.06-.16,5.89-.4,9.81-.4,9.81s-.23-3.92-.4-9.81c-.09-2.94-.16-6.38-.21-10.06,0-1.84-.06-3.74-.06-5.67s0-3.89,0-5.86,0-3.92,0-5.86,0-3.83.06-5.67.06-3.62.09-5.3.08-3.28.12-4.75C1113.7,607.73,1113.93,603.81,1113.93,603.81Z"/><path class="cls-41" d="M1210.4,488.8s.23,4.24.39,10.61c0,1.59.09,3.32.12,5.14l.09,5.74c0,2,.06,4,.06,6.13s0,4.21,0,6.33,0,4.24,0,6.33,0,4.14-.06,6.13c0,4-.12,7.69-.21,10.87-.16,6.37-.4,10.61-.4,10.61s-.23-4.24-.4-10.61c-.09-3.18-.16-6.9-.21-10.87,0-2-.06-4-.06-6.13l0-6.33c0-2.12,0-4.24,0-6.33s0-4.14.06-6.13l.09-5.74c0-1.82.08-3.55.12-5.14C1210.17,493,1210.4,488.8,1210.4,488.8Z"/><path class="cls-42" d="M1210.4,597.83s.23,3.92.39,9.81c0,1.47.09,3.07.12,4.75s.08,3.46.09,5.3.06,3.74.06,5.67,0,3.89,0,5.86,0,3.92,0,5.86,0,3.83-.06,5.67c0,3.68-.12,7.11-.21,10.06-.16,5.89-.4,9.81-.4,9.81s-.23-3.92-.4-9.81c-.09-2.94-.16-6.38-.21-10.06,0-1.84-.06-3.74-.06-5.67l0-5.86c0-2,0-3.92,0-5.86s0-3.83.06-5.67.06-3.62.09-5.3.08-3.28.12-4.75C1210.17,601.75,1210.4,597.83,1210.4,597.83Z"/><path class="cls-43" d="M1126.93,502.85l3,6,3.42,7c1.32,2.68,2.81,5.71,4.41,9l5.18,10.7,5.76,12,6.11,12.81,6.27,13.24,6.23,13.26,6,12.86c3.89,8.34,7.45,16.16,10.53,22.84,1.55,3.34,2.94,6.42,4.17,9.14l3.19,7.06,2.76,6.16-3-6-3.42-7c-1.32-2.68-2.81-5.71-4.41-9-3.2-6.63-7-14.35-10.93-22.66l-6.11-12.81-6.27-13.24-6.23-13.26-6-12.86L1142,536l-5-10.8c-1.55-3.34-2.94-6.42-4.17-9.14l-3.19-7.06Z"/><path class="cls-44" d="M485.54,550.53a71.42,71.42,0,0,0,10.62,13.24,83.46,83.46,0,0,0,14.43,11.45,90.4,90.4,0,0,0-14.13,11.7c-7.6,7.6-10.6,13-10.6,13a85.44,85.44,0,0,0-11.09-13.16,78.52,78.52,0,0,0-14.42-11.54,103.67,103.67,0,0,0,13.1-11.14A117.23,117.23,0,0,0,485.54,550.53Z"/><path class="cls-45" d="M1304.26,551a71.42,71.42,0,0,0,10.62,13.24,83.46,83.46,0,0,0,14.43,11.45,90.4,90.4,0,0,0-14.13,11.7c-7.6,7.6-10.6,13-10.6,13a85.44,85.44,0,0,0-11.09-13.16,78.52,78.52,0,0,0-14.42-11.54,103.67,103.67,0,0,0,13.1-11.14A117.23,117.23,0,0,0,1304.26,551Z"/><path class="cls-1" d="M1039.18,494.41a60,60,0,0,0-18.39-18.28A60.15,60.15,0,0,1,1034.27,491a46.56,46.56,0,0,1,7.16,25.4v47.86a54.84,54.84,0,0,0,14.75,13.58l.09.06a55,55,0,0,1-10-10.26l-.07-.09V519.45A45.91,45.91,0,0,0,1039.18,494.41Z"/><path class="cls-1" d="M1060.85,581.17q-2.21-1.43-4.26-3l-.41.26a54.94,54.94,0,0,0-14.75,13.55v56.41a46.56,46.56,0,0,1-7.16,25.4c-4.08,6.54-19.91,27.88-52,27.88a63,63,0,0,1-21.66-3.69A61.11,61.11,0,0,0,987.72,704c31.78,0,47.43-21.09,51.46-27.56a45.91,45.91,0,0,0,7.06-25V594.78l.07-.09A55.51,55.51,0,0,1,1060.85,581.17Z"/><path class="cls-1" d="M952.16,645.7c0,3.75,2.89,15.86,14.21,22.05C959,661.12,957,652,957,648.77c0-1,0-2.14,0-3.59,0-2.5-.05-5.93-.05-11.15V593.84l.07-.09a55.77,55.77,0,0,1,13.59-12.29A55.55,55.55,0,0,1,957,569.17l-.07-.09V520.39h.21c1-7.06,7.54-24.7,30.62-24.75a36.71,36.71,0,0,1,10.68,1.48,32.38,32.38,0,0,0-16.16-3.86c-24.72.05-30.07,20.67-30.07,25.77,0,1.83,0,2.73,0,3.18,0,0,0,0,0,.05h0l0,.11v43.4a55.08,55.08,0,0,0,13.47,12.13l.63.58-.37.23A55.11,55.11,0,0,0,952.08,591V631c0,5.22,0,8.65.05,11.15C952.15,643.56,952.16,644.7,952.16,645.7Z"/><path class="cls-2" d="M1037.24,561.37v-48a46,46,0,0,0-7.11-25.22,62.17,62.17,0,0,0-103.5,0c-4.6,7-7.11,18.23-7.11,25.22v48l0,0A55.43,55.43,0,0,1,904.9,575v.24a54.39,54.39,0,0,1,14.61,13.74v56.42c0,7,2.51,18.22,7.11,25.22a62.17,62.17,0,0,0,103.5,0,46,46,0,0,0,7.11-25.22V588.84a55.47,55.47,0,0,1,14.91-13.72A55.44,55.44,0,0,1,1037.24,561.37Zm-28.45,81.34c0,6.06-5.93,26.11-30.41,26.11h0C954,668.77,948,648.76,948,642.71c0-2.74-.07-6.5-.07-14.75V587.91a55.65,55.65,0,0,1,13.89-12.46l-.26-.24a55.58,55.58,0,0,1-13.63-12.3V514.34c0,8.2.07,4.44.07,1.7,0-6,6-26.06,30.41-26.11h0c24.49,0,30.41,20.05,30.41,26.11,0-4.09,0,19.43,0,46.58a54.72,54.72,0,0,1-14.18,12.53,56.49,56.49,0,0,1,14.18,13.06c0,16,0,30.72,0,39.14C1008.79,634.21,1008.79,642.11,1008.79,642.71Z"/><path class="cls-3" d="M978.37,698.64a61.44,61.44,0,0,1-52-27.87c-4.65-7.08-7.17-18.37-7.17-25.4V589.06a53.58,53.58,0,0,0-14.46-13.57l-.16-.1v-.61l.16-.1a54.87,54.87,0,0,0,14.46-13.39V513.39c0-7,2.51-18.32,7.17-25.4a61.44,61.44,0,0,1,52-27.87c32.13,0,48,21.34,52,27.88a46.56,46.56,0,0,1,7.16,25.4v47.86a54.83,54.83,0,0,0,14.75,13.58l.46.29-.46.29A54.94,54.94,0,0,0,1037.58,589v56.41a46.56,46.56,0,0,1-7.16,25.4C1026.33,677.3,1010.51,698.64,978.37,698.64Zm-73-123.56a54.37,54.37,0,0,1,14.44,13.66l.07.09v56.53c0,6.93,2.47,18.06,7.06,25A60.77,60.77,0,0,0,978.37,698c31.78,0,47.43-21.09,51.46-27.56a45.91,45.91,0,0,0,7.06-25V588.73l.07-.09a55.51,55.51,0,0,1,14.55-13.52A55.45,55.45,0,0,1,1037,561.57l-.07-.09V513.39a45.91,45.91,0,0,0-7.06-25c-4-6.46-19.68-27.56-51.46-27.56a60.77,60.77,0,0,0-51.47,27.56c-4.58,7-7.06,18.1-7.06,25v48.17l-.11.1A55.64,55.64,0,0,1,905.34,575.08Zm73,94.08c-25.28-.05-30.75-21.21-30.75-26.45,0-1,0-2.14,0-3.59,0-2.5-.05-5.93-.05-11.15V587.79l.07-.09a55.77,55.77,0,0,1,13.59-12.29,55.55,55.55,0,0,1-13.59-12.29l-.07-.09V514.34h.21c1-7.05,7.54-24.7,30.62-24.75,24.59,0,30.44,20.06,30.74,26h0V516c0,.36,0,.87,0,1.61v45.09l-.07.09a54.78,54.78,0,0,1-13.82,12.32A56.71,56.71,0,0,1,1009.06,588l.07.09v39.26c0,6.84,0,14.75,0,15.35C1009.13,648,1003.66,669.16,978.37,669.16ZM948.23,588V628c0,5.22,0,8.65.05,11.15,0,1.45,0,2.59,0,3.6,0,5.1,5.35,25.72,30.07,25.77s30.07-20.66,30.07-25.77c0-.6,0-8.51,0-15.35v-39a56,56,0,0,0-14-12.89l-.46-.29.46-.29a54.18,54.18,0,0,0,14-12.36V516h0c0-5.11-5.35-25.77-30.07-25.77S948.3,510.94,948.3,516c0,1.83,0,2.73,0,3.18,0,0,0,0,0,.05h0s0,.08,0,.11v43.4a55.07,55.07,0,0,0,13.47,12.13l.63.58-.37.23A55.11,55.11,0,0,0,948.23,588Z"/><path class="cls-46" d="M933.41,568.62a18.64,18.64,0,0,0,2.77,3.46,21.79,21.79,0,0,0,3.76,3,23.59,23.59,0,0,0-3.69,3.05,17.49,17.49,0,0,0-2.77,3.39,22.29,22.29,0,0,0-2.9-3.43,20.5,20.5,0,0,0-3.76-3,27,27,0,0,0,3.42-2.91A30.6,30.6,0,0,0,933.41,568.62Z"/><path class="cls-47" d="M1023.25,568.62a18.63,18.63,0,0,0,2.77,3.46,21.79,21.79,0,0,0,3.76,3,23.59,23.59,0,0,0-3.69,3.05,17.49,17.49,0,0,0-2.77,3.39,22.3,22.3,0,0,0-2.9-3.43,20.49,20.49,0,0,0-3.76-3,27,27,0,0,0,3.42-2.91A30.61,30.61,0,0,0,1023.25,568.62Z"/><path class="cls-48" d="M975.63,475.54l-1.18.08-.65,0-.77.09c-.55.07-1.19.13-1.9.25l-1.12.18-1.22.25c-.42.08-.86.18-1.31.3s-.92.21-1.4.35a47.86,47.86,0,0,0-6.29,2.23,49.36,49.36,0,0,0-6.94,3.71,45.84,45.84,0,0,0-6.87,5.41,42.21,42.21,0,0,0-6,7.15,36,36,0,0,0-4.09,8.64,33.57,33.57,0,0,0-1.53,9.41l-.09,9.51c0,3.09-.08,6.08-.12,8.91s-.1,5.51-.16,8c-.11,4.94-.24,9.06-.34,11.94l-.18,4.53-.18-4.53c-.1-2.88-.24-7-.34-11.94-.06-2.47-.12-5.15-.16-8s-.1-5.82-.12-8.91l0-4.7c0-1.59,0-3.19,0-4.83a35.24,35.24,0,0,1,1.55-9.94,37.81,37.81,0,0,1,4.36-9.05,41.44,41.44,0,0,1,6.33-7.35,43.38,43.38,0,0,1,7.25-5.4,45.29,45.29,0,0,1,7.26-3.53,43.1,43.1,0,0,1,6.52-1.94c.49-.11,1-.19,1.44-.28L968,476l.66-.09,1.25-.17,1.14-.1c.72-.08,1.37-.09,1.93-.11l.78,0h.65Z"/><path class="cls-49" d="M981.15,683.73l1.18-.08.65,0,.77-.09c.55-.07,1.19-.13,1.9-.25l1.12-.18,1.22-.25c.42-.08.86-.18,1.31-.3s.92-.21,1.4-.35A47.83,47.83,0,0,0,997,680a49.33,49.33,0,0,0,6.94-3.71,45.82,45.82,0,0,0,6.87-5.41,42.22,42.22,0,0,0,6-7.15,36,36,0,0,0,4.09-8.64,33.57,33.57,0,0,0,1.53-9.41c0-3.24.06-6.43.09-9.51s.08-6.08.12-8.91.1-5.51.16-8c.11-4.94.24-9.06.34-11.94l.18-4.53.18,4.53c.1,2.88.24,7,.34,11.94.06,2.47.12,5.15.16,8s.1,5.82.12,8.91l0,4.7c0,1.59,0,3.19,0,4.83a35.24,35.24,0,0,1-1.55,9.94,37.81,37.81,0,0,1-4.36,9.05,41.44,41.44,0,0,1-6.33,7.35,43.38,43.38,0,0,1-7.25,5.4,45.29,45.29,0,0,1-7.26,3.53,43.08,43.08,0,0,1-6.52,1.94c-.49.11-1,.19-1.44.28l-.68.13-.66.09-1.25.17-1.14.1c-.72.08-1.37.09-1.93.11l-.78,0h-.65Z"/><path class="cls-1" d="M860,494.41a60,60,0,0,0-18.39-18.28A60.15,60.15,0,0,1,855.1,491a46.56,46.56,0,0,1,7.16,25.4v47.86A54.84,54.84,0,0,0,877,577.82l.09.06a55,55,0,0,1-10-10.26l-.07-.09V519.45A45.91,45.91,0,0,0,860,494.41Z"/><path class="cls-1" d="M881.69,581.17q-2.21-1.43-4.26-3l-.41.26a54.94,54.94,0,0,0-14.75,13.55v56.41a46.56,46.56,0,0,1-7.16,25.4c-4.08,6.54-19.91,27.88-52,27.88a63,63,0,0,1-21.66-3.69A61.11,61.11,0,0,0,808.55,704c31.78,0,47.43-21.09,51.46-27.56a45.91,45.91,0,0,0,7.06-25V594.78l.07-.09A55.51,55.51,0,0,1,881.69,581.17Z"/><path class="cls-1" d="M773,645.7c0,3.75,2.89,15.86,14.21,22.05-7.36-6.64-9.41-15.79-9.41-19,0-1,0-2.14,0-3.59,0-2.5-.05-5.93-.05-11.15V593.84l.07-.09a55.77,55.77,0,0,1,13.59-12.29,55.55,55.55,0,0,1-13.59-12.29l-.07-.09V520.39h.21c1-7.06,7.54-24.7,30.62-24.75a36.71,36.71,0,0,1,10.68,1.48,32.38,32.38,0,0,0-16.16-3.86C778.34,493.32,773,513.94,773,519c0,1.83,0,2.73,0,3.18,0,0,0,0,0,.05h0l0,.11v43.4a55.08,55.08,0,0,0,13.47,12.13l.63.58-.37.23A55.11,55.11,0,0,0,772.92,591V631c0,5.22,0,8.65.05,11.15C773,643.56,773,644.7,773,645.7Z"/><path class="cls-2" d="M858.07,561.37v-48A46,46,0,0,0,851,488.18a62.17,62.17,0,0,0-103.5,0c-4.6,7-7.11,18.23-7.11,25.22v48l0,0A55.43,55.43,0,0,1,725.73,575v.24a54.39,54.39,0,0,1,14.61,13.74v56.42c0,7,2.51,18.22,7.11,25.22a62.17,62.17,0,0,0,103.5,0,46,46,0,0,0,7.11-25.22V588.84A55.47,55.47,0,0,1,873,575.12,55.44,55.44,0,0,1,858.07,561.37Zm-28.45,81.34c0,6.06-5.93,26.11-30.41,26.11h0c-24.41-.05-30.41-20.06-30.41-26.11,0-2.74-.07-6.5-.07-14.75V587.91a55.65,55.65,0,0,1,13.89-12.46l-.26-.24a55.58,55.58,0,0,1-13.63-12.3V514.34c0,8.2.07,4.44.07,1.7,0-6,6-26.06,30.41-26.11h0c24.49,0,30.41,20.05,30.41,26.11,0-4.09,0,19.43,0,46.58a55.63,55.63,0,0,1-14.18,12.78,55.55,55.55,0,0,1,14.18,12.81c0,16,0,30.72,0,39.14C829.63,634.21,829.62,642.11,829.62,642.71Z"/><path class="cls-3" d="M799.21,698.64a61.44,61.44,0,0,1-52-27.87c-4.65-7.08-7.17-18.37-7.17-25.4V589.06a53.58,53.58,0,0,0-14.46-13.57l-.16-.1v-.61l.16-.1A54.87,54.87,0,0,0,740,561.29V513.39c0-7,2.51-18.32,7.17-25.4a61.44,61.44,0,0,1,52-27.87c32.13,0,48,21.34,52,27.88a46.56,46.56,0,0,1,7.16,25.4v47.86a54.83,54.83,0,0,0,14.75,13.58l.46.29-.46.29A54.94,54.94,0,0,0,858.41,589v56.41a46.56,46.56,0,0,1-7.16,25.4C847.17,677.3,831.34,698.64,799.21,698.64Zm-73-123.56a54.37,54.37,0,0,1,14.44,13.66l.07.09v56.53c0,6.93,2.47,18.06,7.06,25A60.77,60.77,0,0,0,799.21,698c31.78,0,47.43-21.09,51.46-27.56a45.91,45.91,0,0,0,7.06-25V588.73l.07-.09a55.51,55.51,0,0,1,14.55-13.52,55.45,55.45,0,0,1-14.55-13.55l-.07-.09V513.39a45.91,45.91,0,0,0-7.06-25c-4-6.46-19.68-27.56-51.46-27.56a60.77,60.77,0,0,0-51.47,27.56c-4.58,7-7.06,18.1-7.06,25v48.17l-.11.1A55.64,55.64,0,0,1,726.17,575.08Zm73,94.08c-25.28-.05-30.75-21.21-30.75-26.45,0-1,0-2.14,0-3.59,0-2.5-.05-5.93-.05-11.15V587.79l.07-.09A55.77,55.77,0,0,1,782,575.41a55.55,55.55,0,0,1-13.59-12.29l-.07-.09V514.34h.21c1-7.05,7.54-24.7,30.62-24.75,24.59,0,30.44,20.06,30.74,26h0V516c0,.36,0,.87,0,1.61v45.09l-.07.09a55.73,55.73,0,0,1-13.82,12.57A55.72,55.72,0,0,1,829.9,588l.07.09v39.26c0,6.84,0,14.75,0,15.35C830,648,824.49,669.16,799.21,669.16ZM769.06,588V628c0,5.22,0,8.65.05,11.15,0,1.45,0,2.59,0,3.6,0,5.1,5.35,25.72,30.07,25.77s30.07-20.66,30.07-25.77c0-.6,0-8.51,0-15.35v-39a55.07,55.07,0,0,0-14-12.64l-.46-.29.46-.29a55.1,55.1,0,0,0,14-12.61V516h0c0-5.11-5.35-25.77-30.07-25.77S769.14,510.94,769.14,516c0,1.83,0,2.73,0,3.18,0,0,0,0,0,.05h0s0,.08,0,.11v43.4a55.07,55.07,0,0,0,13.47,12.13l.63.58-.37.23A55.11,55.11,0,0,0,769.06,588Z"/><path class="cls-50" d="M754.24,568.75a18.64,18.64,0,0,0,2.77,3.46,21.79,21.79,0,0,0,3.76,3,23.59,23.59,0,0,0-3.69,3.05,17.49,17.49,0,0,0-2.77,3.39,22.29,22.29,0,0,0-2.9-3.43,20.5,20.5,0,0,0-3.76-3,27,27,0,0,0,3.42-2.91A30.6,30.6,0,0,0,754.24,568.75Z"/><path class="cls-51" d="M844.09,568.75a18.63,18.63,0,0,0,2.77,3.46,21.79,21.79,0,0,0,3.76,3,23.59,23.59,0,0,0-3.69,3.05,17.49,17.49,0,0,0-2.77,3.39,22.3,22.3,0,0,0-2.9-3.43,20.49,20.49,0,0,0-3.76-3,27,27,0,0,0,3.42-2.91A30.61,30.61,0,0,0,844.09,568.75Z"/><path class="cls-52" d="M796.46,475.54l-1.18.08-.65,0-.77.09c-.55.07-1.19.13-1.9.25l-1.12.18-1.22.25c-.42.08-.86.18-1.31.3s-.92.21-1.4.35a47.86,47.86,0,0,0-6.29,2.23,49.36,49.36,0,0,0-6.94,3.71,45.84,45.84,0,0,0-6.87,5.41,42.21,42.21,0,0,0-6,7.15,36,36,0,0,0-4.09,8.64,33.57,33.57,0,0,0-1.53,9.41l-.09,9.51c0,3.09-.08,6.08-.12,8.91s-.1,5.51-.16,8c-.11,4.94-.24,9.06-.34,11.94l-.18,4.53-.18-4.53c-.1-2.88-.24-7-.34-11.94-.06-2.47-.12-5.15-.16-8s-.1-5.82-.12-8.91l0-4.7c0-1.59,0-3.19,0-4.83a35.24,35.24,0,0,1,1.55-9.94,37.81,37.81,0,0,1,4.36-9.05,41.44,41.44,0,0,1,6.33-7.35,43.38,43.38,0,0,1,7.25-5.4,45.29,45.29,0,0,1,7.26-3.53,43.1,43.1,0,0,1,6.52-1.94c.49-.11,1-.19,1.44-.28l.68-.13.66-.09,1.25-.17,1.14-.1c.72-.08,1.37-.09,1.93-.11l.78,0h.65Z"/><path class="cls-53" d="M802,683.73l1.18-.08.65,0,.77-.09c.55-.07,1.19-.13,1.9-.25l1.12-.18,1.22-.25c.42-.08.86-.18,1.31-.3s.92-.21,1.4-.35a47.83,47.83,0,0,0,6.29-2.23,49.33,49.33,0,0,0,6.94-3.71,45.82,45.82,0,0,0,6.87-5.41,42.22,42.22,0,0,0,6-7.15,36,36,0,0,0,4.09-8.64,33.57,33.57,0,0,0,1.53-9.41c0-3.24.06-6.43.09-9.51s.08-6.08.12-8.91.1-5.51.16-8c.11-4.94.24-9.06.34-11.94l.18-4.53.18,4.53c.1,2.88.24,7,.34,11.94.06,2.47.12,5.15.16,8s.1,5.82.12,8.91l0,4.7c0,1.59,0,3.19,0,4.83a35.24,35.24,0,0,1-1.55,9.94,37.81,37.81,0,0,1-4.36,9.05,41.44,41.44,0,0,1-6.33,7.35,43.38,43.38,0,0,1-7.25,5.4,45.29,45.29,0,0,1-7.26,3.53,43.08,43.08,0,0,1-6.52,1.94c-.49.11-1,.19-1.44.28l-.68.13-.66.09-1.25.17-1.14.1c-.72.08-1.37.09-1.93.11l-.78,0h-.65Z"/><path class="cls-1" d="M596.19,664.28a30.7,30.7,0,0,0,9,7.6c-7.87-6.82-10.85-16.29-10.85-20.7,0-1,0-3.28,0-5.83a14.8,14.8,0,0,1,4.93-9.3,22.93,22.93,0,0,1,6.95-4.19,12.32,12.32,0,0,0-8-9.66,11.87,11.87,0,0,1,2.93,6.67l0,.25-.24.07a21.69,21.69,0,0,0-7,4.16,14.17,14.17,0,0,0-4.71,8.87c0,2.51,0,4.79,0,5.78C589.3,651,591.17,658.06,596.19,664.28Z"/><path class="cls-1" d="M574.17,624.93a12,12,0,0,1,.81-1.38,14.13,14.13,0,0,0-2.69-1.39A12.35,12.35,0,0,1,574.17,624.93Z"/><path class="cls-1" d="M687.45,517.1a47.63,47.63,0,0,0-7.33-26,62.31,62.31,0,0,0-19.84-19.44A62.45,62.45,0,0,1,675,487.62a48.23,48.23,0,0,1,7.42,26.31V523a14.59,14.59,0,0,0,4.83,8.78,27.15,27.15,0,0,0,4.9,3.3,15.09,15.09,0,0,1-4.65-8.86Z"/><path class="cls-1" d="M699.45,539.63a20,20,0,0,1-5.13-2.79c-.93,6.27-6.84,10.92-14,10.92a15.54,15.54,0,0,1-3-.3,14.56,14.56,0,0,0,8.72,2.86C693,550.32,698.7,545.74,699.45,539.63Z"/><path class="cls-1" d="M667.39,540.2c-2.23,4.55-7.34,7.56-12.93,7.56a16,16,0,0,1-3.12-.31,14.53,14.53,0,0,0,8.81,2.87,14.09,14.09,0,0,0,11.28-5.41A12.88,12.88,0,0,1,667.39,540.2Z"/><path class="cls-1" d="M682.7,681.23c4.8-7.69,7.95-20.67,8.81-27,2.5-18.53-2.64-36.59-14.87-52.23-9.11-11.66-44.77-39.41-60-51.26-3.63-2.82-6.25-4.86-7.38-5.8-6.75-5.58-13.87-15.3-13.59-25.89.07-2.82,1.56-27.53,31.06-27.59a36.68,36.68,0,0,1,11.09,1.6A32.6,32.6,0,0,0,621,488.85c-28.92.06-30.38,24.24-30.45,27-.27,10.37,6.73,19.92,13.37,25.41,1.12.93,3.74,3,7.37,5.79,16.53,12.87,50.94,39.65,60.1,51.37,12.33,15.77,17.52,34,15,52.69-.87,6.43-4,19.52-8.89,27.29-11.41,18.28-30.34,27.55-56.27,27.55a67,67,0,0,1-24-4.28,65.19,65.19,0,0,0,29.71,6.84C652.66,708.5,671.41,699.32,682.7,681.23Z"/><path class="cls-2" d="M643.78,528.92a22,22,0,0,1-7.08,4.22c.62,6.28,6.54,11.21,13.76,11.21,5.93,0,11-3.32,12.93-8,2,4.66,7,8,12.93,8,7.22,0,13.14-4.93,13.76-11.21a22,22,0,0,1-7.08-4.22,14.69,14.69,0,0,1-4.94-9v-9.08a47.72,47.72,0,0,0-7.37-26.14c-4.14-6.63-20.62-28.74-53.66-28.74s-47.12,18.27-54,28.47c-7.28,10.77-9.23,25-8.76,34.18.52,10.11,4.42,23.75,18,35.25,6.54,5.55,61.59,49.23,70.07,62.55a42.63,42.63,0,0,1,6.5,28.51C648,652,643.27,673.07,618,673.12h0c-25.39,0-33-21.95-33-28.23,0-1,0-3.28,0-5.83h0a14.54,14.54,0,0,1,4.81-9.06,22,22,0,0,1,7.08-4.22c-.62-6.28-6.54-11.21-13.76-11.21-5.93,0-11,3.32-12.93,8-2-4.66-7-8-12.93-8-7.22,0-13.14,4.93-13.76,11.21a22,22,0,0,1,7.08,4.22,14.7,14.7,0,0,1,4.94,9v8.62a47.72,47.72,0,0,0,7.37,26.14,64.47,64.47,0,0,0,54.39,28.74c33,0,48.51-15.39,56-27.41,4.59-7.36,7.88-20,8.85-27.17,2.72-20.2-3.78-38.19-14.93-52.46s-61.32-52.07-67.42-57.11c-6.51-5.38-13.76-15-13.48-25.65.23-8.73,5.45-27.24,30.76-27.29h0c25.39,0,31.53,21.85,31.53,28.13,0,1,0,3.54,0,6.29h0A14.54,14.54,0,0,1,643.78,528.92Z"/><path class="cls-3" d="M617.27,702.83c-34.85,0-51.64-24.06-54.65-28.88a48.24,48.24,0,0,1-7.42-26.31V639a14.58,14.58,0,0,0-4.83-8.78,21.7,21.7,0,0,0-7-4.16l-.24-.07,0-.25c.65-6.55,6.7-11.49,14.07-11.49,5.59,0,10.7,3,12.93,7.56,2.23-4.55,7.34-7.56,12.93-7.56,7.37,0,13.42,4.94,14.07,11.49l0,.25-.24.07a21.69,21.69,0,0,0-7,4.16,14.17,14.17,0,0,0-4.71,8.87c0,2.51,0,4.79,0,5.78,0,3,1.87,10.06,6.89,16.28,4.29,5.31,12.25,11.64,25.77,11.64,25.5-.05,29.81-21.41,30.53-28A42.22,42.22,0,0,0,642,616.56c-7.12-11.19-46.78-43.51-63.71-57.31-3.06-2.5-5.28-4.3-6.3-5.17-14-11.92-17.57-25.86-18.07-35.46s1.56-23.64,8.81-34.36c5.29-7.82,19.35-28.61,54.28-28.61,33.29,0,49.68,22.1,53.91,28.88a48.23,48.23,0,0,1,7.42,26.31v9.08a14.59,14.59,0,0,0,4.83,8.78,21.69,21.69,0,0,0,7,4.16l.24.07,0,.25c-.65,6.55-6.7,11.49-14.07,11.49-5.59,0-10.7-3-12.93-7.56-2.23,4.55-7.34,7.56-12.93,7.56-7.37,0-13.42-4.94-14.07-11.49l0-.25.24-.07a21.7,21.7,0,0,0,7-4.16l.19.24-.19-.24a14.18,14.18,0,0,0,4.7-8.86c0-2.74,0-5.22,0-6.26,0-5.52-5.56-27.83-31.23-27.83-28.92.06-30.38,24.24-30.45,27-.27,10.37,6.73,19.92,13.37,25.41,1.12.93,3.74,3,7.37,5.79,16.53,12.87,50.94,39.65,60.1,51.37,12.33,15.77,17.52,34,15,52.69-.87,6.43-4,19.52-8.89,27.29C662.13,693.56,643.2,702.83,617.27,702.83Zm-73.46-77.26a22.93,22.93,0,0,1,6.95,4.19,15,15,0,0,1,5,9.21v8.67a47.64,47.64,0,0,0,7.33,26c3,4.77,19.61,28.59,54.14,28.59C643,702.22,661.73,693,673,675c4.8-7.69,7.95-20.67,8.81-27,2.5-18.53-2.65-36.59-14.87-52.23-9.11-11.66-44.77-39.41-60-51.26-3.63-2.82-6.25-4.86-7.38-5.8-6.75-5.57-13.87-15.3-13.59-25.89.07-2.82,1.56-27.53,31.06-27.59,26.17,0,31.84,22.79,31.84,28.44,0,1,0,3.54,0,6.29v.31h0a14.68,14.68,0,0,1-4.88,9h0a22.92,22.92,0,0,1-6.95,4.19c.74,6.11,6.47,10.69,13.43,10.69,5.6,0,10.68-3.13,12.65-7.8l.28-.67.28.67c2,4.67,7.05,7.8,12.65,7.8,7,0,12.69-4.58,13.43-10.69a22.91,22.91,0,0,1-6.95-4.19,15,15,0,0,1-5-9.21v-9.13a47.64,47.64,0,0,0-7.33-26c-4.19-6.71-20.42-28.59-53.4-28.59-34.6,0-48.53,20.59-53.77,28.34-7.17,10.61-9.17,24.94-8.71,34,.49,9.48,4,23.25,17.85,35,1,.87,3.24,2.67,6.3,5.16,17,13.82,56.66,46.18,63.84,57.46a42.81,42.81,0,0,1,6.54,28.7c-.73,6.67-5.13,28.44-31.14,28.5-25.08,0-33.27-21.22-33.27-28.53,0-1,0-3.28,0-5.83a14.8,14.8,0,0,1,4.93-9.3,22.92,22.92,0,0,1,6.95-4.19c-.74-6-6.59-10.69-13.43-10.69-5.6,0-10.68,3.13-12.65,7.8l-.28.67-.28-.67c-2-4.67-7.05-7.8-12.65-7.8C550.28,614.88,544.55,619.46,543.81,625.58Z"/><path class="cls-54" d="M570,643.13l0,.61c0,.4,0,1,.09,1.77a48.09,48.09,0,0,0,.94,6.64c.29,1.42.7,3,1.21,4.62a48.73,48.73,0,0,0,2,5.24,45.12,45.12,0,0,0,7.32,11.23,41.79,41.79,0,0,0,12.6,9.48,46.6,46.6,0,0,0,8.1,3c.72.17,1.43.4,2.16.54l2.2.46c1.49.23,3,.49,4.52.61a62.33,62.33,0,0,0,9.35.22l1.2-.05c.4,0,.79-.07,1.18-.1.79-.08,1.58-.12,2.37-.23l2.38-.33c.79-.13,1.58-.29,2.37-.44a46,46,0,0,0,17.8-7.52,40.62,40.62,0,0,0,7.2-6.54,42,42,0,0,0,5.39-8,44.25,44.25,0,0,0,3.46-8.88,46.94,46.94,0,0,0,1.57-9.18c.05-.76.1-1.53.1-2.28s0-1.51,0-2.28,0-1.52,0-2.27l-.07-2.23,0-1.11-.08-1.1-.16-2.18-.25-2.14-.13-1.06c0-.35-.12-.7-.17-1a49.44,49.44,0,0,0-4.93-15,65,65,0,0,0-7.56-11.13l-1.9-2.22c-.61-.72-1.26-1.35-1.86-2l-1.73-1.81c-.56-.57-1.13-1.08-1.65-1.58-1.06-1-2-1.91-2.81-2.65l-2.14-1.89-1.78-1.58,1.83,1.52,2.2,1.82c.87.72,1.81,1.61,2.89,2.58.53.49,1.11,1,1.69,1.55l1.78,1.78c.61.63,1.28,1.24,1.91,1.95l2,2.18a61.46,61.46,0,0,1,7.86,11.1,50.37,50.37,0,0,1,5.25,15.24c.06.35.14.71.19,1.06l.14,1.08.29,2.18.19,2.21.1,1.12.06,1.12.11,2.27,0,2.28c0,.76,0,1.53,0,2.32s0,1.56-.1,2.35a48.18,48.18,0,0,1-1.57,9.43,45.54,45.54,0,0,1-3.52,9.15,43.32,43.32,0,0,1-5.53,8.31,41.76,41.76,0,0,1-7.42,6.81,47.37,47.37,0,0,1-18.37,7.66c-.81.14-1.62.31-2.43.43l-2.43.32c-.81.1-1.63.15-2.44.22l-1.21.09-1.2,0a63.55,63.55,0,0,1-9.53-.27c-1.56-.13-3.1-.4-4.62-.65l-2.25-.48c-.75-.15-1.47-.39-2.2-.58a47.69,47.69,0,0,1-8.25-3.2A42.7,42.7,0,0,1,581,673.77a43.52,43.52,0,0,1-7.2-11.54,49.21,49.21,0,0,1-1.92-5.34c-.47-1.69-.85-3.25-1.11-4.68a44.74,44.74,0,0,1-.74-6.69c0-.78,0-1.37,0-1.77S570,643.13,570,643.13Z"/><path class="cls-55" d="M662.35,514.07l0-.57c0-.38,0-.94-.08-1.67a45.17,45.17,0,0,0-.9-6.27,44.67,44.67,0,0,0-3.09-9.31,43.44,43.44,0,0,0-6.9-10.61,41.26,41.26,0,0,0-11.74-9.18,49.7,49.7,0,0,0-15.86-5,52.71,52.71,0,0,0-17.78.23A41.91,41.91,0,0,0,589.27,479,45.06,45.06,0,0,0,577,492.5a43.66,43.66,0,0,0-5.84,16.71,31.51,31.51,0,0,0-.24,4.27c0,1.45.08,2.83.17,4.23a37.36,37.36,0,0,0,1.48,8,39,39,0,0,0,7.19,13,98.45,98.45,0,0,0,8.71,9.3c2.75,2.62,5.25,4.82,7.31,6.62l4.82,4.14,1.72,1.45-1.76-1.39c-1.15-.91-2.83-2.25-4.94-4s-4.65-3.89-7.48-6.45c-1.41-1.28-2.89-2.68-4.41-4.19s-3-3.18-4.54-5a47.71,47.71,0,0,1-4.27-6,35.09,35.09,0,0,1-3.27-7.21,38.39,38.39,0,0,1-1.64-8.2c-.12-1.41-.2-2.88-.21-4.31a32.64,32.64,0,0,1,.23-4.42,44.85,44.85,0,0,1,5.92-17.2,46.22,46.22,0,0,1,12.55-14,43.2,43.2,0,0,1,17.26-7.43,48,48,0,0,1,9.21-.85c1.53,0,3,.07,4.53.19s3,.28,4.44.51a51.94,51.94,0,0,1,8.48,2,47,47,0,0,1,7.67,3.3A41.95,41.95,0,0,1,658.72,496a45,45,0,0,1,2.89,9.46,42.1,42.1,0,0,1,.71,6.32c0,.73,0,1.3,0,1.67S662.35,514.07,662.35,514.07Z"/></svg>