<svg id="Layer_1" data-name="Layer 1" xmlns="http://www.w3.org/2000/svg" viewBox="0 0 284.25 45.67"><defs><style>.cls-1{fill:#6e1415;}.cls-2{fill:#eee0b8;}</style></defs><title>hopsArtboard 1svg</title><path class="cls-1" d="M226.38,36.5c8.36,0,25-.36,15.14-13-6.09-7.84-8.05-11.38-10-12.63-1.81,2.15-3,1.31-1.64-.32-.9-.09-2-.1-3.49-.1H205.58c-.88,1.07-3.92,1.76-2.74,0H180c-1,1.21-3.56.93-2.93,0h-22c-1.23,1.47-4.81,1.28-4.09,0H128.41c-1.27,1.3-4.44,1.47-4,0H102.23c-.87.87-3.2,1-2.83,0H77.25c-1.28,1.31-4.38.88-3.93,0H50.61c-.84,1.25-4.06,1.19-3.61,0-11.18,0-17.16,0-25.47,3C20.37,15.32,17,18.5,14,18.75c-5.49.47-9.27,2.41-11.67,4.71,2.66,5.83,6.78,13,15.14,13H34.59c-.41-1.65,1.43-2.11,4,0H60.33c-.54-2.36,3-1.45,4.61,0H86.67c-.94-1.7,2.06-1.45,4,0h21.82c-.43-1.74,1.69-1.53,3.83,0h21.73c-.41-2,2.3-1.67,4.62,0h21.73c-.41-2,2.86-1.74,4.48,0h21.73c-.13-1.88,2.45-.94,3.83,0h21.73c-.78-1.42.93-2.85,5.88,0A5.58,5.58,0,0,0,226.38,36.5Z"/><path class="cls-1" d="M4.14,23.17S21.66,11,34.68,36.67c.84,1.54,3.91,1.85,6.3,1.92.75,0,.51.57.07.59-2.28.12-5,.18-4.57,1.1s6.2.84,9.41,1.11c.49,0,.6.38.11.45C32.86,43.51,7.39,41.77,4.14,23.17Z"/><path class="cls-2" d="M30.92,33.66C27.44,25.55,18.74,19.74,8.5,23.29c5,0,13.36,1.44,17.49,6.25-2.77-1.32-6.08-2.37-8.57-2.18a5.79,5.79,0,0,1,1.91,2.95s-6.8-3.88-10-3.94a35.77,35.77,0,0,0,12.49,9.1c-1.87.47-8-.93-9.8-2.31,2.33,2.07,6,5.06,12.38,3.57a12.38,12.38,0,0,0-1-2.49S28.49,34.37,30.92,33.66Z"/><path class="cls-2" d="M32.17,39.65s-2.66,0-3.94-1.3a8.08,8.08,0,0,0-.73-2.27,6.6,6.6,0,0,0,3.25.06A8.09,8.09,0,0,1,32.17,39.65Z"/><path class="cls-1" d="M55.88,4.81c-2.05,0-5.66.17-7.16.25s-3,0-2.93-.23c0-.66,2.78-.58,4.91-.92,1.15-.19.92-.71-.1-.72-2.49,0-6,.14-6.3.14-3.93,0-23.85,1.32-26.11,19.06C27.21,27,42,20.31,49.42,6.53c.2-.38,4.56-.62,6.57-1C56.88,5.32,56.92,4.8,55.88,4.81Z"/><path class="cls-2" d="M24.73,22.1C28.39,21.74,38.88,19.81,47,7a20.23,20.23,0,0,1-5.33.72l.69-1.64S27.21,5.93,23,15.8c2.83-2.34,7.62-7,14.77-6.73a21.62,21.62,0,0,0-12.46,9.8c2.52-.31,3-.8,6.6-2.17C31.12,18.67,28.69,20.38,24.73,22.1Z"/><path class="cls-1" d="M29.55,23.54s17.3-12.45,30.78,13c.87,1.53,3.94,1.78,6.33,1.81.75,0,.52.56.08.59-2.28.16-5,.27-4.55,1.19s6.22.73,9.43.94c.49,0,.6.37.12.44C58.64,43.37,33.14,42.08,29.55,23.54Z"/><path class="cls-2" d="M56.52,33.56c-3.63-8-12.42-13.7-22.6-10,5-.08,13.38,1.21,17.6,5.93-2.8-1.27-6.12-2.27-8.61-2a5.79,5.79,0,0,1,2,2.91S38,26.65,34.8,26.65a35.79,35.79,0,0,0,12.65,8.88c-1.86.51-8-.79-9.84-2.14,2.36,2,6.09,5,12.44,3.35a12.35,12.35,0,0,0-1-2.48S54.1,34.31,56.52,33.56Z"/><path class="cls-2" d="M57.87,39.52s-2.66.08-4-1.23A8.11,8.11,0,0,0,53.13,36a6.61,6.61,0,0,0,3.25,0A8.09,8.09,0,0,1,57.87,39.52Z"/><path class="cls-1" d="M82.19,4.65c-2.05,0-5.66.22-7.16.31s-3,.05-2.93-.2c-.05-.66,2.78-.6,4.9-1,1.15-.2.91-.72-.1-.72-2.49,0-6,.19-6.3.19-3.93,0-23.84,1.52-25.95,19.29,8.65,5.29,23.77-2.3,31.1-16.15C76,6,80.3,5.76,82.31,5.34,83.2,5.15,83.24,4.63,82.19,4.65Z"/><path class="cls-2" d="M51.2,22.22c3.65-.4,14.13-2.42,22.18-15.3a20.25,20.25,0,0,1-5.32.77L68.73,6S53.54,6,49.39,15.92c2.81-2.37,7.56-7.11,14.71-6.86A21.62,21.62,0,0,0,51.73,19c2.51-.33,3-.83,6.58-2.23C57.56,18.73,55.14,20.45,51.2,22.22Z"/><path class="cls-1" d="M55.9,23.54s17.3-12.45,30.78,13c.87,1.53,3.94,1.78,6.33,1.81.75,0,.52.56.08.59-2.28.16-5,.27-4.55,1.19s6.22.73,9.43.94c.49,0,.6.37.12.44C85,43.37,59.48,42.08,55.9,23.54Z"/><path class="cls-2" d="M82.86,33.56c-3.63-8-12.42-13.7-22.6-10,5-.08,13.38,1.21,17.6,5.93-2.8-1.27-6.12-2.27-8.61-2a5.8,5.8,0,0,1,2,2.91s-6.86-3.76-10.07-3.76a35.79,35.79,0,0,0,12.65,8.88c-1.86.51-8-.79-9.84-2.14,2.36,2,6.1,5,12.44,3.35a12.34,12.34,0,0,0-1-2.48S80.44,34.31,82.86,33.56Z"/><path class="cls-2" d="M84.21,39.52s-2.66.08-4-1.23A8.08,8.08,0,0,0,79.47,36a6.61,6.61,0,0,0,3.25,0A8.08,8.08,0,0,1,84.21,39.52Z"/><path class="cls-1" d="M108.29,4.16c-2,.09-5.65.37-7.15.51s-3,.13-2.93-.12c-.07-.66,2.76-.68,4.87-1.09,1.15-.23.89-.75-.12-.72-2.49.07-6,.35-6.29.36-3.93.14-23.79,2.16-25.42,20,8.79,5.06,23.7-2.94,30.65-17,.19-.38,4.53-.78,6.53-1.26C109.31,4.64,109.33,4.12,108.29,4.16Z"/><path class="cls-2" d="M77.78,22.55c3.64-.5,14.06-2.8,21.76-15.89a20.24,20.24,0,0,1-5.3.91l.63-1.66s-15.19.4-19.06,10.4C78.55,13.87,83.17,9,90.33,9.06a21.62,21.62,0,0,0-12.1,10.24c2.5-.4,3-.91,6.52-2.4C84,18.89,81.67,20.68,77.78,22.55Z"/><path class="cls-1" d="M81.73,23.54S99,11.1,112.51,36.5c.87,1.53,3.94,1.78,6.33,1.81.75,0,.52.56.08.59-2.28.16-5,.27-4.55,1.19s6.22.73,9.43.94c.49,0,.6.37.12.44-8.94,1.29-23.65,1.11-33.23-5A19.25,19.25,0,0,1,81.73,23.54Z"/><path class="cls-2" d="M108.69,33.56c-3.63-8-12.42-13.7-22.6-10,5-.08,13.38,1.21,17.6,5.93-2.8-1.27-6.12-2.27-8.61-2a5.79,5.79,0,0,1,2,2.91S90.18,26.65,87,26.65a35.77,35.77,0,0,0,12.65,8.88c-1.86.51-8-.79-9.84-2.14,2.36,2,6.09,5,12.44,3.35a12.3,12.3,0,0,0-1-2.48S106.27,34.31,108.69,33.56Z"/><path class="cls-2" d="M110,39.52s-2.66.08-4-1.23a8.08,8.08,0,0,0-.78-2.26,6.61,6.61,0,0,0,3.25,0A8.09,8.09,0,0,1,110,39.52Z"/><path class="cls-1" d="M133.31,4.2c-2,.09-5.65.36-7.15.49s-3,.13-2.93-.13c-.07-.66,2.76-.67,4.87-1.08,1.15-.23.89-.74-.12-.72-2.49.06-6,.34-6.29.35C117.76,3.24,97.89,5.23,96.23,23c8.78,5.07,23.71-2.9,30.68-16.91.19-.38,4.53-.78,6.53-1.25C134.33,4.67,134.35,4.15,133.31,4.2Z"/><path class="cls-2" d="M102.76,22.53c3.64-.49,14.07-2.77,21.79-15.85a20.22,20.22,0,0,1-5.3.9l.63-1.66s-15.19.37-19.08,10.37c2.75-2.44,7.38-7.29,14.53-7.22a21.63,21.63,0,0,0-12.12,10.22c2.51-.39,3-.9,6.52-2.39C109,18.88,106.66,20.67,102.76,22.53Z"/><path class="cls-1" d="M107.29,23.54s17.3-12.45,30.78,13c.87,1.53,3.94,1.78,6.33,1.81.75,0,.52.56.08.59-2.28.16-5,.27-4.55,1.19s6.22.73,9.43.94c.49,0,.6.37.12.44C136.37,43.37,110.87,42.08,107.29,23.54Z"/><path class="cls-2" d="M134.25,33.56c-3.63-8-12.42-13.7-22.6-10,5-.08,13.38,1.21,17.6,5.93-2.8-1.27-6.12-2.27-8.61-2a5.8,5.8,0,0,1,2,2.91s-6.87-3.76-10.07-3.76a35.77,35.77,0,0,0,12.65,8.88c-1.86.51-8-.79-9.84-2.14,2.36,2,6.09,5,12.44,3.35a12.33,12.33,0,0,0-1-2.48S131.83,34.31,134.25,33.56Z"/><path class="cls-2" d="M135.6,39.52s-2.66.08-4-1.23a8.07,8.07,0,0,0-.78-2.26,6.61,6.61,0,0,0,3.25,0A8.09,8.09,0,0,1,135.6,39.52Z"/><path class="cls-1" d="M159.88,4.56c-2.05,0-5.66.25-7.16.35s-3,.07-2.93-.18c-.05-.66,2.77-.62,4.89-1,1.15-.2.91-.73-.11-.72-2.49,0-6,.22-6.3.23-3.93.05-23.83,1.65-25.84,19.43,8.68,5.24,23.76-2.43,31-16.31.2-.38,4.55-.69,6.55-1.12C160.89,5.05,160.92,4.53,159.88,4.56Z"/><path class="cls-2" d="M129,22.28c3.65-.42,14.12-2.49,22.09-15.42a20.23,20.23,0,0,1-5.32.8L146.42,6s-15.19.07-19.28,10c2.79-2.38,7.52-7.15,14.67-6.94a21.62,21.62,0,0,0-12.32,10c2.51-.35,3-.84,6.57-2.26C135.32,18.76,132.91,20.5,129,22.28Z"/><path class="cls-1" d="M133.63,23.54s17.3-12.45,30.78,13c.87,1.53,3.94,1.78,6.33,1.81.75,0,.52.56.08.59-2.28.16-5,.27-4.55,1.19s6.22.73,9.43.94c.49,0,.6.37.12.44C162.71,43.37,137.22,42.08,133.63,23.54Z"/><path class="cls-2" d="M160.59,33.56c-3.62-8-12.42-13.7-22.6-10,5-.08,13.38,1.21,17.6,5.93-2.8-1.27-6.12-2.27-8.61-2a5.79,5.79,0,0,1,2,2.91s-6.86-3.76-10.07-3.76a35.81,35.81,0,0,0,12.65,8.88c-1.86.51-8-.79-9.84-2.14,2.37,2,6.1,5,12.44,3.35a12.36,12.36,0,0,0-1-2.48S158.17,34.31,160.59,33.56Z"/><path class="cls-2" d="M161.95,39.52s-2.66.08-4-1.23a8.11,8.11,0,0,0-.78-2.26,6.61,6.61,0,0,0,3.25,0A8.08,8.08,0,0,1,161.95,39.52Z"/><path class="cls-1" d="M185.93,4c-2,.11-5.64.42-7.14.57s-3,.16-2.93-.09c-.07-.66,2.75-.7,4.86-1.14,1.14-.24.88-.75-.13-.72-2.49.09-6,.41-6.29.42-3.93.17-23.77,2.39-25.23,20.22,8.84,5,23.67-3.17,30.49-17.27.19-.38,4.52-.83,6.52-1.32C187,4.45,187,3.93,185.93,4Z"/><path class="cls-2" d="M155.6,22.67c3.63-.53,14-2.93,21.6-16.1a20.27,20.27,0,0,1-5.29,1l.62-1.67s-15.18.54-19,10.59C156.28,14,160.86,9.07,168,9.05a21.62,21.62,0,0,0-12,10.35c2.5-.42,3-.94,6.49-2.47C161.83,19,159.48,20.76,155.6,22.67Z"/><path class="cls-1" d="M159.83,23.54s17.3-12.45,30.78,13c.87,1.53,3.94,1.78,6.33,1.81.75,0,.52.56.08.59-2.28.16-5,.27-4.55,1.19s6.22.73,9.43.94c.49,0,.6.37.12.44C188.92,43.37,163.42,42.08,159.83,23.54Z"/><path class="cls-2" d="M186.8,33.56c-3.62-8-12.42-13.7-22.6-10,5-.08,13.38,1.21,17.6,5.93-2.8-1.27-6.12-2.27-8.61-2a5.78,5.78,0,0,1,2,2.91s-6.86-3.76-10.07-3.76a35.79,35.79,0,0,0,12.65,8.88c-1.86.51-8-.79-9.84-2.14,2.36,2,6.1,5,12.44,3.35a12.33,12.33,0,0,0-1-2.48S184.38,34.31,186.8,33.56Z"/><path class="cls-2" d="M188.15,39.52s-2.66.08-4-1.23a8.07,8.07,0,0,0-.78-2.26,6.61,6.61,0,0,0,3.25,0A8.08,8.08,0,0,1,188.15,39.52Z"/><path class="cls-1" d="M211.71,4.81c-2.05,0-5.66.17-7.16.25s-3,0-2.93-.22c0-.66,2.78-.58,4.91-.92,1.15-.19.92-.71-.1-.72-2.49,0-6,.14-6.3.14-3.93,0-23.85,1.33-26.1,19.08,8.61,5.36,23.79-2.11,31.23-15.89.2-.38,4.55-.62,6.57-1C212.71,5.31,212.75,4.79,211.71,4.81Z"/><path class="cls-2" d="M180.57,22.11c3.65-.37,14.15-2.3,22.3-15.12a20.21,20.21,0,0,1-5.33.72l.69-1.64S183,5.94,178.82,15.8c2.83-2.34,7.61-7,14.77-6.74a21.62,21.62,0,0,0-12.46,9.81c2.52-.31,3-.8,6.6-2.17C187,18.68,184.53,20.38,180.57,22.11Z"/><path class="cls-1" d="M185.39,23.54s17.3-12.45,30.78,13c.87,1.53,3.94,1.78,6.33,1.81.75,0,.52.56.08.59-2.28.16-5,.27-4.55,1.19s6.22.73,9.43.94c.49,0,.6.37.12.44C214.47,43.37,189,42.08,185.39,23.54Z"/><path class="cls-2" d="M212.35,33.56c-3.63-8-12.42-13.7-22.6-10,5-.08,13.38,1.21,17.6,5.93-2.8-1.27-6.12-2.27-8.61-2a5.78,5.78,0,0,1,2,2.91s-6.86-3.76-10.07-3.76a35.81,35.81,0,0,0,12.65,8.88c-1.86.51-8-.79-9.84-2.14,2.36,2,6.1,5,12.44,3.35a12.33,12.33,0,0,0-1-2.48S209.93,34.31,212.35,33.56Z"/><path class="cls-2" d="M213.71,39.52s-2.66.08-4-1.23A8.07,8.07,0,0,0,209,36a6.61,6.61,0,0,0,3.25,0A8.08,8.08,0,0,1,213.71,39.52Z"/><path class="cls-1" d="M234.48,6.08c-2-.12-1.49-.21-3-.23s-3-.18-2.9-.42c0-.66,2.81-.39,5-.59,1.17-.11,1-.65,0-.73-2.48-.19-6-.27-6.3-.29-3.92-.27-23.89-.29-27.34,17.27,8.23,5.93,23.88-.49,32.23-13.74.23-.36.42-.31,2.45-.58C235.45,6.65,235.52,6.14,234.48,6.08Z"/><path class="cls-2" d="M206.41,21.23c3.67-.12,14.27-1.34,23.28-13.57a20.24,20.24,0,0,1-5.36.36l.8-1.59s-15.15-1.16-20,8.39c3-2.15,8.07-6.51,15.19-5.72A21.63,21.63,0,0,0,207.19,18c2.53-.14,3.07-.6,6.73-1.72C213,18.24,210.48,19.78,206.41,21.23Z"/><path class="cls-1" d="M212.64,25.26s15.72-14.39,32.09,9.25c1,1.42,4.12,1.3,6.5,1.05.74-.08.58.5.15.58-2.24.43-5,.86-4.38,1.71s6.26,0,9.47-.17c.49,0,.64.3.17.43-9,2.41-24.33,4-34.59-1.61A19.05,19.05,0,0,1,212.64,25.26Z"/><path class="cls-2" d="M240.59,32C236,24.48,226.64,19.89,217,24.79c5-.67,13.43-.37,18.18,3.83-2.93-.94-6.34-1.53-8.79-1a5.8,5.8,0,0,1,2.29,2.66s-7.26-2.92-10.44-2.55a35.76,35.76,0,0,0,13.6,7.33c-1.79.72-8,.16-10-1,2.59,1.74,6.63,4.2,12.75,1.87a12.28,12.28,0,0,0-1.33-2.34S238.28,33.07,240.59,32Z"/><path class="cls-2" d="M242.64,37.8s-2.63.39-4.08-.75a8.05,8.05,0,0,0-1-2.15,6.6,6.6,0,0,0,3.23-.38A8.11,8.11,0,0,1,242.64,37.8Z"/><path class="cls-1" d="M265,6.08c-2-.12-5.66-.21-7.16-.23s-3-.18-2.91-.42c0-.66,2.81-.39,5-.59,1.16-.11,1-.65,0-.73-2.48-.19-6-.27-6.29-.29-3.92-.27-23.89-.29-27.34,17.27,8.22,5.93,23.88-.49,32.23-13.74.23-.36,4.59-.31,6.62-.58C266,6.65,266,6.14,265,6.08Z"/><path class="cls-2" d="M232.75,21.23C236.42,21.11,247,19.9,256,7.66a20.24,20.24,0,0,1-5.36.36l.8-1.59s-15.15-1.16-20,8.39c3-2.15,8.07-6.51,15.19-5.72A21.62,21.62,0,0,0,233.53,18c2.53-.14,3.07-.6,6.73-1.72C239.36,18.24,236.82,19.78,232.75,21.23Z"/><path class="cls-1" d="M281.4,26.05c-2.92-.22-7,.16-8.26-.31s-1.45-.84-1-1.1a23.29,23.29,0,0,1,5.82-.64c1.17,0,1-.69-.05-.82-2.86-.36-5.61-.24-7.42-1-3.39-2-22-11.13-32.93,3,4.7,9,22.32,10.42,35.72,2.32a44.75,44.75,0,0,1,7.9-.79C282.05,26.7,282.44,26.13,281.4,26.05Z"/><path class="cls-2" d="M244.06,28.41c3.34,1.53,13.36,5.19,26.89-1.71a20.22,20.22,0,0,1-5-2.08l1.43-1.07s-13-7.82-21.67-1.47c3.62-.59,10.14-2.21,16.14,1.68a21.62,21.62,0,0,0-15.71,2.13c2.33,1,3,.84,6.79,1.47C251.31,28.69,248.35,28.92,244.06,28.41Z"/></svg>