<svg xmlns="http://www.w3.org/2000/svg" width="70" height="57" viewBox="0 0 70 57">
  <metadata><?xpacket begin="﻿" id="W5M0MpCehiHzreSzNTczkc9d"?>
<x:xmpmeta xmlns:x="adobe:ns:meta/" x:xmptk="Adobe XMP Core 5.6-c142 79.160924, 2017/07/13-01:06:39        ">
   <rdf:RDF xmlns:rdf="http://www.w3.org/1999/02/22-rdf-syntax-ns#">
      <rdf:Description rdf:about=""/>
   </rdf:RDF>
</x:xmpmeta>
                                                                                                    
                                                                                                    
                                                                                                    
                                                                                                    
                                                                                                    
                                                                                                    
                                                                                                    
                                                                                                    
                                                                                                    
                                                                                                    
                                                                                                    
                                                                                                    
                                                                                                    
                                                                                                    
                                                                                                    
                                                                                                    
                                                                                                    
                                                                                                    
                                                                                                    
                                                                                                    
                           
<?xpacket end="w"?></metadata>
<defs>
    <style>
      .cls-1 {
        fill: #fff;
        fill-rule: evenodd;
      }
    </style>
  </defs>
  <path id="icon_-_twitter" data-name="icon - twitter" class="cls-1" d="M1475.01,1740c26.42,0,40.87-21.93,40.87-40.94,0-.62-0.02-1.24-0.04-1.86a29.318,29.318,0,0,0,7.16-7.45,28.473,28.473,0,0,1-8.25,2.26,14.444,14.444,0,0,0,6.32-7.96,28.884,28.884,0,0,1-9.12,3.5,14.362,14.362,0,0,0-24.85,9.84,14.721,14.721,0,0,0,.37,3.28,40.763,40.763,0,0,1-29.6-15.03,14.431,14.431,0,0,0,4.45,19.21,14.46,14.46,0,0,1-6.51-1.8v0.18a14.391,14.391,0,0,0,11.52,14.11,14.671,14.671,0,0,1-3.78.5,14.048,14.048,0,0,1-2.7-.26,14.376,14.376,0,0,0,13.41,10,28.766,28.766,0,0,1-17.83,6.16,29.809,29.809,0,0,1-3.43-.2,40.607,40.607,0,0,0,22.01,6.46" transform="translate(-1453 -1683)"/>
</svg>
