<svg xmlns="http://www.w3.org/2000/svg" width="60" height="60" viewBox="0 0 60 60">
  <metadata><?xpacket begin="﻿" id="W5M0MpCehiHzreSzNTczkc9d"?>
<x:xmpmeta xmlns:x="adobe:ns:meta/" x:xmptk="Adobe XMP Core 5.6-c142 79.160924, 2017/07/13-01:06:39        ">
   <rdf:RDF xmlns:rdf="http://www.w3.org/1999/02/22-rdf-syntax-ns#">
      <rdf:Description rdf:about=""/>
   </rdf:RDF>
</x:xmpmeta>
                                                                                                    
                                                                                                    
                                                                                                    
                                                                                                    
                                                                                                    
                                                                                                    
                                                                                                    
                                                                                                    
                                                                                                    
                                                                                                    
                                                                                                    
                                                                                                    
                                                                                                    
                                                                                                    
                                                                                                    
                                                                                                    
                                                                                                    
                                                                                                    
                                                                                                    
                                                                                                    
                           
<?xpacket end="w"?></metadata>
<defs>
    <style>
      .cls-1 {
        fill: #fff;
        fill-rule: evenodd;
      }
    </style>
  </defs>
  <path id="icon_-_IG" data-name="icon - IG" class="cls-1" d="M1203,1687.41c8.01,0,8.96.03,12.12,0.17a16.477,16.477,0,0,1,5.57,1.03,10,10,0,0,1,5.7,5.7,16.477,16.477,0,0,1,1.03,5.57c0.14,3.16.17,4.11,0.17,12.12s-0.03,8.96-.17,12.12a16.477,16.477,0,0,1-1.03,5.57,10,10,0,0,1-5.7,5.7,16.477,16.477,0,0,1-5.57,1.03c-3.16.14-4.11,0.17-12.12,0.17s-8.96-.03-12.12-0.17a16.477,16.477,0,0,1-5.57-1.03,10,10,0,0,1-5.7-5.7,16.477,16.477,0,0,1-1.03-5.57c-0.14-3.16-.17-4.11-0.17-12.12s0.03-8.96.17-12.12a16.477,16.477,0,0,1,1.03-5.57,10,10,0,0,1,5.7-5.7,16.477,16.477,0,0,1,5.57-1.03c3.16-.14,4.11-0.17,12.12-0.17m0-5.41c-8.15,0-9.17.03-12.37,0.18a22.2,22.2,0,0,0-7.28,1.39,15.463,15.463,0,0,0-8.78,8.78,22.2,22.2,0,0,0-1.39,7.28c-0.15,3.2-.18,4.22-0.18,12.37s0.03,9.17.18,12.37a22.2,22.2,0,0,0,1.39,7.28,14.694,14.694,0,0,0,3.47,5.31,14.535,14.535,0,0,0,5.31,3.46,21.912,21.912,0,0,0,7.28,1.4c3.2,0.15,4.22.18,12.37,0.18s9.17-.03,12.37-0.18a21.912,21.912,0,0,0,7.28-1.4,15.353,15.353,0,0,0,8.77-8.77,21.912,21.912,0,0,0,1.4-7.28c0.15-3.2.18-4.22,0.18-12.37s-0.03-9.17-.18-12.37a21.912,21.912,0,0,0-1.4-7.28,14.535,14.535,0,0,0-3.46-5.31,14.694,14.694,0,0,0-5.31-3.47,22.2,22.2,0,0,0-7.28-1.39c-3.2-.15-4.22-0.18-12.37-0.18h0Zm0,14.59a15.41,15.41,0,1,0,15.41,15.41A15.411,15.411,0,0,0,1203,1696.59Zm0,25.41a10,10,0,1,1,10-10A10,10,0,0,1,1203,1722Zm19.61-26.01a3.6,3.6,0,1,1-3.6-3.6A3.6,3.6,0,0,1,1222.61,1695.99Z" transform="translate(-1173 -1682)"/>
</svg>
